<svg xmlns="http://www.w3.org/2000/svg" xmlns:xlink="http://www.w3.org/1999/xlink" viewBox="0 0 1352.1 1500.87"><defs><style>.cls-1{mask:url(#mask);filter:url(#luminosity-noclip-4);}.cls-2,.cls-4,.cls-6{mix-blend-mode:multiply;}.cls-2{fill:url(#linear-gradient);}.cls-3{mask:url(#mask-2);filter:url(#luminosity-noclip-5);}.cls-4{fill:url(#radial-gradient);}.cls-5{mask:url(#mask-3);filter:url(#luminosity-noclip-6);}.cls-6{fill:url(#radial-gradient-2);}.cls-7{isolation:isolate;}.cls-8{fill:#ffd345;}.cls-26,.cls-40,.cls-65,.cls-9{fill:#fff;}.cls-10{font-size:38.15px;fill:#3a3a3a;font-family:SDGothicNeoa-eMd, SDGothicNeoa eMd-KSCpc-EUC-H;font-weight:500;letter-spacing:-0.02em;}.cls-11{letter-spacing:-0.03em;}.cls-12{letter-spacing:-0.04em;}.cls-13{letter-spacing:-0.01em;}.cls-14{letter-spacing:-0.01em;}.cls-15{letter-spacing:-0.03em;}.cls-16{letter-spacing:-0.05em;}.cls-17{letter-spacing:-0.01em;}.cls-18{letter-spacing:-0.01em;}.cls-19{letter-spacing:-0.03em;}.cls-20{letter-spacing:-0.02em;}.cls-21{letter-spacing:-0.02em;}.cls-22{letter-spacing:-0.05em;}.cls-23{letter-spacing:-0.03em;}.cls-24{fill:#d4a200;}.cls-25,.cls-43,.cls-44,.cls-45,.cls-46,.cls-47,.cls-48,.cls-49,.cls-50{fill:#2e2e2e;}.cls-26{font-size:37.12px;font-family:SDGothicNeoa-hExBd, SDGothicNeoa hExBd-KSCpc-EUC-H;}.cls-27{fill:#51524e;}.cls-28{fill:#0e87d6;}.cls-29{fill:#f22e0a;}.cls-30{fill:#f2c800;}.cls-31{fill:#ffed24;}.cls-32{fill:#ffde24;}.cls-33{fill:#b09100;}.cls-34{fill:#fffba8;}.cls-35{fill:#ffe782;}.cls-36{fill:#ffda40;}.cls-37{mask:url(#mask-4);}.cls-38{fill:url(#linear-gradient-2);}.cls-39{fill:#f7f3ae;}.cls-40{font-size:153.97px;letter-spacing:-0.05em;}.cls-40,.cls-51{font-family:SDMascara-aLt, SDMascara aLt-KSCpc-EUC-H;}.cls-41{letter-spacing:-0.06em;}.cls-42{letter-spacing:-0.03em;}.cls-43{letter-spacing:-0.02em;}.cls-44{letter-spacing:-0.02em;}.cls-45{letter-spacing:-0.04em;}.cls-46{letter-spacing:-0.03em;}.cls-47{letter-spacing:-0.02em;}.cls-48{letter-spacing:-0.04em;}.cls-49{letter-spacing:-0.04em;}.cls-50{letter-spacing:-0.02em;}.cls-51{font-size:56.26px;fill:#3b3b3b;letter-spacing:-0.05em;}.cls-52{letter-spacing:-0.04em;}.cls-53{letter-spacing:-0.05em;}.cls-54{letter-spacing:-0.02em;}.cls-55{letter-spacing:-0.02em;}.cls-56{letter-spacing:-0.05em;}.cls-57{letter-spacing:-0.04em;}.cls-58{letter-spacing:-0.03em;}.cls-59{letter-spacing:-0.05em;}.cls-60{letter-spacing:-0.06em;}.cls-61{letter-spacing:-0.02em;}.cls-62{opacity:0.15;fill:url(#radial-gradient-3);}.cls-62,.cls-63,.cls-64,.cls-65{mix-blend-mode:screen;}.cls-63,.cls-67,.cls-69{opacity:0.7;}.cls-63{fill:url(#radial-gradient-4);}.cls-64{fill:url(#radial-gradient-5);}.cls-65{opacity:0.03;}.cls-66{mask:url(#mask-5);}.cls-67{fill:url(#radial-gradient-6);}.cls-68{mask:url(#mask-6);}.cls-69{fill:url(#radial-gradient-7);}.cls-70{filter:url(#luminosity-noclip-3);}.cls-71{filter:url(#luminosity-noclip-2);}.cls-72{filter:url(#luminosity-noclip);}</style><filter id="luminosity-noclip" x="666.08" y="-8942" width="126.08" height="32766" filterUnits="userSpaceOnUse" color-interpolation-filters="sRGB"><feFlood flood-color="#fff" result="bg"/><feBlend in="SourceGraphic" in2="bg"/></filter><mask id="mask" x="666.08" y="-8942" width="126.08" height="32766" maskUnits="userSpaceOnUse"><g class="cls-72"/></mask><linearGradient id="linear-gradient" x1="602.68" y1="873.78" x2="732.59" y2="944.15" gradientUnits="userSpaceOnUse"><stop offset="0" stop-color="#fff"/><stop offset="1"/></linearGradient><filter id="luminosity-noclip-2" x="535.88" y="-8942" width="141.78" height="32766" filterUnits="userSpaceOnUse" color-interpolation-filters="sRGB"><feFlood flood-color="#fff" result="bg"/><feBlend in="SourceGraphic" in2="bg"/></filter><mask id="mask-2" x="535.88" y="-8942" width="141.78" height="32766" maskUnits="userSpaceOnUse"><g class="cls-71"/></mask><radialGradient id="radial-gradient" cx="348.79" cy="831.57" r="75.78" gradientTransform="translate(-121.1 278.15) rotate(-31.06)" gradientUnits="userSpaceOnUse"><stop offset="0" stop-color="#fff"/><stop offset="0.11" stop-color="#fbfbfb"/><stop offset="0.24" stop-color="#ededed"/><stop offset="0.37" stop-color="#d7d7d7"/><stop offset="0.5" stop-color="#b9b9b9"/><stop offset="0.64" stop-color="#919191"/><stop offset="0.77" stop-color="#616161"/><stop offset="0.91" stop-color="#292929"/><stop offset="1"/></radialGradient><filter id="luminosity-noclip-3" x="500.7" y="-8942" width="211.68" height="32766" filterUnits="userSpaceOnUse" color-interpolation-filters="sRGB"><feFlood flood-color="#fff" result="bg"/><feBlend in="SourceGraphic" in2="bg"/></filter><mask id="mask-3" x="500.7" y="-8942" width="211.68" height="32766" maskUnits="userSpaceOnUse"><g class="cls-70"/></mask><radialGradient id="radial-gradient-2" cx="606.54" cy="809.94" r="99.01" gradientUnits="userSpaceOnUse"><stop offset="0" stop-color="#fff"/><stop offset="0.04" stop-color="#f5f5f5"/><stop offset="0.52" stop-color="#737373"/><stop offset="0.85" stop-color="#202020"/><stop offset="1"/></radialGradient><filter id="luminosity-noclip-4" x="666.08" y="816.58" width="126.08" height="207.01" filterUnits="userSpaceOnUse" color-interpolation-filters="sRGB"><feFlood flood-color="#fff" result="bg"/><feBlend in="SourceGraphic" in2="bg"/></filter><mask id="mask-4" x="666.08" y="816.58" width="126.08" height="207.01" maskUnits="userSpaceOnUse"><g class="cls-1"><path class="cls-2" d="M678.28,816.58l113.65,93s9.54,92.26-93.88,114l-32-23.67,16.23-131Z"/></g></mask><linearGradient id="linear-gradient-2" x1="602.68" y1="873.78" x2="732.59" y2="944.15" gradientUnits="userSpaceOnUse"><stop offset="0" stop-color="#969970"/><stop offset="1" stop-color="#90936c"/></linearGradient><radialGradient id="radial-gradient-3" cx="606.56" cy="809.94" r="161.57" gradientUnits="userSpaceOnUse"><stop offset="0" stop-color="#200000"/><stop offset="0.73" stop-color="#9c4122"/><stop offset="1" stop-color="#200000"/></radialGradient><radialGradient id="radial-gradient-4" cx="606.55" cy="809.93" r="80.79" gradientUnits="userSpaceOnUse"><stop offset="0.15" stop-color="#fff"/><stop offset="0.21" stop-color="#e5d2d2"/><stop offset="0.29" stop-color="#c59b9c"/><stop offset="0.36" stop-color="#ae7374"/><stop offset="0.42" stop-color="#a05b5c"/><stop offset="0.45" stop-color="#9b5253"/><stop offset="0.58" stop-color="#693131"/><stop offset="0.7" stop-color="#411616"/><stop offset="0.79" stop-color="#290606"/><stop offset="0.85" stop-color="#200000"/><stop offset="0.86" stop-color="#240201"/><stop offset="0.86" stop-color="#310803"/><stop offset="0.87" stop-color="#451108"/><stop offset="0.88" stop-color="#621e0e"/><stop offset="0.89" stop-color="#883016"/><stop offset="0.9" stop-color="#b5441f"/><stop offset="0.9" stop-color="#d55326"/><stop offset="0.9" stop-color="#c64c23"/><stop offset="0.91" stop-color="#9a381a"/><stop offset="0.93" stop-color="#752712"/><stop offset="0.94" stop-color="#56190b"/><stop offset="0.95" stop-color="#3e0e06"/><stop offset="0.97" stop-color="#2d0603"/><stop offset="0.98" stop-color="#230101"/><stop offset="1" stop-color="#200000"/></radialGradient><radialGradient id="radial-gradient-5" cx="606.55" cy="809.93" r="68.46" gradientUnits="userSpaceOnUse"><stop offset="0.15" stop-color="#fff"/><stop offset="0.28" stop-color="#c2c2c2"/><stop offset="0.43" stop-color="#888"/><stop offset="0.56" stop-color="#575757"/><stop offset="0.69" stop-color="#313131"/><stop offset="0.81" stop-color="#161616"/><stop offset="0.92" stop-color="#060606"/><stop offset="1"/></radialGradient><filter id="luminosity-noclip-5" x="535.88" y="729.5" width="141.78" height="161.99" filterUnits="userSpaceOnUse" color-interpolation-filters="sRGB"><feFlood flood-color="#fff" result="bg"/><feBlend in="SourceGraphic" in2="bg"/></filter><mask id="mask-5" x="535.88" y="729.5" width="141.78" height="161.99" maskUnits="userSpaceOnUse"><g class="cls-3"><path class="cls-4" d="M610.89,810.41c8.55-2.87,27-18.63,65.27-41.72-38.32,23.09-60.86,32-67.4,38.19,1.78-8.84-2.66-32.65-3.49-77.38.83,44.72-2.75,68.68-.64,77.44-6.76-6-29.6-14-68.75-35.64C575,792.94,594,808,602.63,810.56c-8.55,2.87-26.93,18.64-65.26,41.73,38.33-23.09,60.87-32,67.39-38.19-1.77,8.83,2.68,32.65,3.51,77.38-.83-44.73,2.73-68.69.61-77.45,6.78,6,29.62,14,68.78,35.66C638.5,828.05,619.54,813,610.89,810.41Z"/></g></mask><radialGradient id="radial-gradient-6" cx="348.79" cy="831.57" r="75.78" gradientTransform="translate(-121.1 278.15) rotate(-31.06)" gradientUnits="userSpaceOnUse"><stop offset="0" stop-color="#fff"/><stop offset="1" stop-color="#fff"/></radialGradient><filter id="luminosity-noclip-6" x="500.7" y="718.28" width="211.68" height="183.33" filterUnits="userSpaceOnUse" color-interpolation-filters="sRGB"><feFlood flood-color="#fff" result="bg"/><feBlend in="SourceGraphic" in2="bg"/></filter><mask id="mask-6" x="500.7" y="718.28" width="211.68" height="183.33" maskUnits="userSpaceOnUse"><g class="cls-5"><path class="cls-6" d="M553.63,901.6C614.05,797,621.55,810,500.7,809.93c120.85,0,113.35,13,52.93-91.65,60.42,104.64,45.43,104.64,105.85,0-60.42,104.64-67.92,91.67,52.91,91.65-120.83,0-113.33-13-52.91,91.67C599.06,797,614.05,797,553.63,901.6Z"/></g></mask><radialGradient id="radial-gradient-7" cx="606.54" cy="809.94" r="99.01" gradientTransform="matrix(1, 0, 0, 1, 0, 0)" xlink:href="#radial-gradient-6"/></defs><title>04</title><g class="cls-7"><g id="Layer_2" data-name="Layer 2"><g id="레이어_1" data-name="레이어 1"><rect class="cls-8" x="23.9" width="1300" height="1500.87"/><polygon class="cls-9" points="949.64 230.19 398.17 230.19 415.68 196.22 398.17 162.24 949.64 162.24 932.13 196.22 949.64 230.19"/><text class="cls-10" transform="translate(475.99 206.93) scale(0.95 1)">2<tspan class="cls-11" x="21.22" y="0">0</tspan><tspan class="cls-12" x="41.97" y="0">1</tspan><tspan class="cls-13" x="62.2" y="0">8</tspan><tspan class="cls-14" x="83.82" y="0"> </tspan><tspan class="cls-15" x="96" y="0">코</tspan><tspan class="cls-16" x="132.87" y="0">리</tspan><tspan class="cls-17" x="169.25" y="0">아</tspan><tspan class="cls-18" x="206.93" y="0"> </tspan><tspan class="cls-19" x="219.11" y="0">응</tspan><tspan class="cls-20" x="256.26" y="0">원</tspan><tspan class="cls-21" x="293.54" y="0"> </tspan><tspan class="cls-22" x="305.54" y="0">이</tspan><tspan class="cls-23" x="341.84" y="0">벤</tspan><tspan class="cls-14" x="378.69" y="0">트</tspan></text><ellipse class="cls-24" cx="676.62" cy="1214.24" rx="272.34" ry="44.54"/><path class="cls-25" d="M838.46,1381c0,2.65-1.65,4.8-3.66,4.8H513c-2,0-3.65-2.15-3.65-4.8V1310.8c0-2.65,1.63-4.8,3.65-4.8H834.8c2,0,3.66,2.15,3.66,4.8Z"/><text class="cls-26" transform="translate(537.17 1356.88)">이벤트 참여하기</text><circle class="cls-27" cx="676.62" cy="906.39" r="307.85" transform="translate(-442.74 743.91) rotate(-45)"/><circle class="cls-9" cx="676.62" cy="906.39" r="293.03" transform="translate(-442.74 743.91) rotate(-45)"/><circle class="cls-27" cx="676.62" cy="906.39" r="264.16" transform="translate(-442.74 743.91) rotate(-45)"/><circle class="cls-28" cx="676.62" cy="906.39" r="214.66" transform="translate(-442.74 743.91) rotate(-45)"/><circle class="cls-29" cx="676.62" cy="906.39" r="160.04" transform="translate(-442.74 743.91) rotate(-45)"/><polygon class="cls-9" points="776.91 878.14 780.46 878.14 778.68 876.46 776.91 878.14"/><polygon class="cls-9" points="582.61 878.14 586.15 878.14 584.38 876.46 582.61 878.14"/><path class="cls-30" d="M823.21,908.14A144.66,144.66,0,1,1,678.56,763.49,144.66,144.66,0,0,1,823.21,908.14Z"/><path class="cls-31" d="M823.21,908.14A144.66,144.66,0,1,1,678.56,763.49,144.66,144.66,0,0,1,823.21,908.14Z"/><path class="cls-32" d="M813.08,908.14A134.53,134.53,0,1,1,678.56,773.61,134.53,134.53,0,0,1,813.08,908.14Z"/><path class="cls-33" d="M678.56,790.65A117.49,117.49,0,1,0,796.05,908.14,117.49,117.49,0,0,0,678.56,790.65Z"/><path class="cls-34" d="M629.87,1044.38a145.34,145.34,0,0,0,14.07,4.22l23.5-23.5a116.18,116.18,0,0,1-15.71-2.58Z"/><path class="cls-34" d="M819,873.53q-1.77-7.18-4.22-14.07l-21.85,21.85A117.65,117.65,0,0,1,795.51,897Z"/><path class="cls-34" d="M562.14,923.82l-16.53,5a134.59,134.59,0,0,0,65.29,95.57l15.36-11.05A117.52,117.52,0,0,1,562.14,923.82Z"/><path class="cls-35" d="M678.56,794.18A114,114,0,0,0,573,951.21L722.75,803.06A113.64,113.64,0,0,0,678.56,794.18Z"/><path class="cls-36" d="M722.75,803.06,573,951.21A114,114,0,1,0,722.75,803.06Z"/><g class="cls-37"><path class="cls-38" d="M678.28,816.58l113.65,93s9.54,92.26-93.88,114l-32-23.67,16.23-131Z"/></g><path class="cls-39" d="M677.2,815.5c2.13,24.75-3.93,29.67-22.19,53.26a30.61,30.61,0,0,0-6.55,15.4,30,30,0,0,0-.71,6.47,29.45,29.45,0,1,0,58.9,0C707.62,861.17,677.2,815.5,677.2,815.5Z"/><path class="cls-36" d="M678.38,853.31c-1.17,14.48-3.36,16.43-13.47,29.5a16.89,16.89,0,0,0-3.63,8.54,16.32,16.32,0,1,0,32.25,3.58C694.06,878.6,678.38,853.31,678.38,853.31Z"/><path class="cls-39" d="M721.35,914.37c0,17.55-18.87,30.86-44.15,30.86s-44.14-13.31-44.14-30.86Z"/><polygon class="cls-39" points="689.4 998.85 665.01 998.85 657.43 944.12 696.97 944.12 689.4 998.85"/><path class="cls-36" d="M703.3,943.29a4.9,4.9,0,0,1-4.9,4.89H656a4.89,4.89,0,0,1-4.89-4.89h0a4.89,4.89,0,0,1,4.89-4.9h42.4a4.9,4.9,0,0,1,4.9,4.9Z"/><rect class="cls-25" x="638.94" y="748.64" width="376.6" height="13.04" transform="translate(-291.69 806.12) rotate(-45)"/><polygon class="cls-29" points="879.11 660.28 938.88 600.51 946.89 626.28 887.12 686.05 879.11 660.28"/><polygon class="cls-29" points="956.12 635.5 896.34 695.28 922.12 703.29 981.89 643.52 956.12 635.5"/><path class="cls-25" d="M698.7,883.7a6.52,6.52,0,1,1-9.22,0A6.53,6.53,0,0,1,698.7,883.7Z"/><path class="cls-25" d="M965,617.4a6.52,6.52,0,1,1-9.22,0A6.52,6.52,0,0,1,965,617.4Z"/><rect class="cls-25" x="771.26" y="854.9" width="376.6" height="13.04" transform="translate(-147.68 200.5) rotate(-11.08)"/><polygon class="cls-9" points="1055.55 811.63 1138.5 795.38 1130.77 821.24 1047.82 837.49 1055.55 811.63"/><polygon class="cls-9" points="1133.28 834.04 1050.32 850.28 1067.24 871.32 1150.19 855.07 1133.28 834.04"/><path class="cls-25" d="M781.17,896.36a6.52,6.52,0,1,1-7.65-5.15A6.52,6.52,0,0,1,781.17,896.36Z"/><path class="cls-25" d="M1150.75,824a6.52,6.52,0,1,1-7.66-5.15A6.52,6.52,0,0,1,1150.75,824Z"/><rect class="cls-25" x="869.79" y="835.52" width="13.04" height="376.6" transform="translate(-446.27 1282.46) rotate(-60.5)"/><polygon class="cls-28" points="981.6 1048.44 1055.18 1090.06 1032.48 1104.67 958.91 1063.05 981.6 1048.44"/><polygon class="cls-28" points="1026.06 1116.02 952.49 1074.4 951.66 1101.38 1025.23 1143 1026.06 1116.02"/><path class="cls-25" d="M718.09,934.32a6.52,6.52,0,1,1-2.46-8.89A6.52,6.52,0,0,1,718.09,934.32Z"/><path class="cls-25" d="M1045.88,1119.74a6.52,6.52,0,1,1-2.47-8.89A6.52,6.52,0,0,1,1045.88,1119.74Z"/><rect class="cls-25" x="428.24" y="539.03" width="13.04" height="376.6" transform="translate(-407.86 637.82) rotate(-53.07)"/><polygon class="cls-28" points="333.54 689.29 265.97 638.5 290.36 626.95 357.93 677.74 333.54 689.29"/><polygon class="cls-28" points="298.2 616.52 365.77 667.31 370.08 640.67 302.51 589.88 298.2 616.52"/><path class="cls-25" d="M580.06,836.55a6.52,6.52,0,1,1,1.3,9.14A6.53,6.53,0,0,1,580.06,836.55Z"/><path class="cls-25" d="M279,610.27a6.52,6.52,0,1,1,1.29,9.13A6.52,6.52,0,0,1,279,610.27Z"/><rect class="cls-25" x="437" y="683.14" width="13.04" height="376.6" transform="translate(-503.51 1114.87) rotate(-77.44)"/><polygon class="cls-29" points="335.62 878.56 253.12 860.18 270.57 839.59 353.08 857.97 335.62 878.56"/><polygon class="cls-29" points="273.4 826.86 355.91 845.24 348.85 819.19 266.34 800.82 273.4 826.86"/><path class="cls-25" d="M621,911a6.52,6.52,0,1,1,4.95,7.78A6.53,6.53,0,0,1,621,911Z"/><path class="cls-25" d="M253.36,829.08a6.52,6.52,0,1,1,4.95,7.78A6.53,6.53,0,0,1,253.36,829.08Z"/><rect class="cls-25" x="268.88" y="986.51" width="376.6" height="13.04" transform="translate(-206.76 124.52) rotate(-12.68)"/><polygon class="cls-9" points="362.61 1045.47 280.14 1064.02 287.15 1037.96 369.62 1019.41 362.61 1045.47"/><polygon class="cls-9" points="284.29 1025.23 366.76 1006.68 349.26 986.13 266.79 1004.68 284.29 1025.23"/><path class="cls-25" d="M634.52,953.14a6.52,6.52,0,1,1,7.8,4.94A6.52,6.52,0,0,1,634.52,953.14Z"/><path class="cls-25" d="M267.1,1035.78a6.52,6.52,0,1,1,7.8,4.93A6.52,6.52,0,0,1,267.1,1035.78Z"/><text class="cls-40" transform="matrix(1, 0, -0.17, 0.98, 1.19, 394.11)">금<tspan class="cls-41" x="146.95" y="0">메</tspan><tspan class="cls-42" x="291.81" y="0">달</tspan><tspan class="cls-43" x="440.39" y="0">을</tspan><tspan class="cls-44" x="591.53" y="0"> </tspan><tspan class="cls-45" x="639.63" y="0">향</tspan><tspan class="cls-46" x="787.97" y="0">해</tspan><tspan class="cls-47" x="937.01" y="0"> </tspan><tspan class="cls-48" x="985.11" y="0">쏴</tspan><tspan class="cls-49" x="1132.53" y="0">라</tspan><tspan class="cls-50" x="1280.36" y="0">!</tspan></text><text class="cls-51" transform="matrix(1, 0, -0.17, 0.98, 301.64, 501.8)">대<tspan class="cls-52" x="53.3" y="0">한</tspan><tspan class="cls-53" x="107.1" y="0">민</tspan><tspan class="cls-54" x="160.57" y="0">국</tspan><tspan class="cls-55" x="215.79" y="0"> </tspan><tspan class="cls-56" x="233.45" y="0">선</tspan><tspan class="cls-57" x="286.91" y="0">수들</tspan><tspan class="cls-54" x="395.29" y="0">을 </tspan><tspan class="cls-58" x="468.22" y="0">응</tspan><tspan class="cls-59" x="522.52" y="0">원</tspan><tspan class="cls-52" x="575.9" y="0">합</tspan><tspan class="cls-60" x="629.69" y="0">니</tspan><tspan class="cls-61" x="682.33" y="0">다</tspan></text><path class="cls-62" d="M445,809.93A161.58,161.58,0,1,0,606.55,648.37,161.57,161.57,0,0,0,445,809.93Z"/><path class="cls-63" d="M525.76,809.93a80.79,80.79,0,1,0,80.79-80.78A80.8,80.8,0,0,0,525.76,809.93Z"/><path class="cls-64" d="M538.09,809.93a68.46,68.46,0,1,0,68.46-68.46A68.45,68.45,0,0,0,538.09,809.93Z"/><polygon class="cls-65" points="606.31 1012.22 606.02 845.63 603.54 925.28 602.38 925.25 605.73 817.59 604.32 825.17 603.17 824.96 603.33 824.04 567.2 957.5 566.07 957.2 596.16 846.07 579.68 900.2 578.56 899.85 604.06 816.13 579.57 864.19 578.54 863.65 605.01 811.68 448.14 917.3 447.48 916.32 585.35 823.51 509.71 869.47 509.1 868.47 599.07 813.8 568.37 827.03 567.89 825.95 600.64 811.86 562.04 820.41 561.79 819.28 592.01 812.56 464.55 830.41 464.39 829.26 582.2 812.76 579.75 812.98 579.64 811.81 593.5 810.55 404.28 810.87 404.28 809.7 570.87 809.41 491.22 806.93 491.26 805.77 598.91 809.11 591.32 807.71 591.54 806.55 592.42 806.72 458.98 770.58 459.28 769.46 570.4 799.54 516.3 783.06 516.63 781.95 600.36 807.44 552.3 782.97 552.84 781.93 604.8 808.4 499.2 651.51 500.16 650.86 592.99 788.74 547.02 713.09 548.02 712.5 602.68 802.45 589.47 771.76 590.53 771.28 604.64 804.03 596.08 765.43 597.21 765.18 603.92 795.39 586.08 667.93 587.24 667.77 603.74 785.62 603.51 783.13 604.68 783.02 605.94 796.89 605.62 607.66 606.79 607.66 607.07 774.27 609.55 694.6 610.71 694.63 607.37 802.31 608.77 794.71 609.93 794.92 609.77 795.8 645.9 662.37 647.03 662.67 616.94 773.8 633.42 719.67 634.53 720.01 609.05 803.76 633.53 755.69 634.58 756.22 608.1 808.18 764.97 702.58 765.62 703.54 627.75 796.37 703.39 750.41 704 751.41 614.03 806.08 644.74 792.85 645.2 793.92 612.46 808.02 651.06 799.47 651.32 800.61 621.09 807.31 748.55 789.47 748.72 790.62 630.89 807.13 633.35 806.9 633.46 808.07 619.6 809.33 808.83 808.99 808.83 810.17 642.24 810.46 721.88 812.95 721.85 814.1 614.19 810.75 621.79 812.17 621.56 813.32 620.65 813.14 754.12 849.29 753.82 850.42 642.72 820.34 696.82 836.8 696.47 837.92 612.74 812.44 660.81 836.9 660.26 837.95 608.3 811.49 713.91 968.36 712.94 969.02 620.12 831.15 666.08 906.78 665.09 907.39 610.41 817.42 623.65 848.13 622.57 848.59 608.46 815.85 617.03 854.44 615.89 854.7 609.17 824.47 627.03 951.94 625.87 952.1 609.36 834.31 609.59 836.74 608.43 836.85 607.15 822.98 607.49 1012.22 606.31 1012.22"/><g class="cls-66"><path class="cls-67" d="M610.89,810.41c8.55-2.87,27-18.63,65.27-41.72-38.32,23.09-60.86,32-67.4,38.19,1.78-8.84-2.66-32.65-3.49-77.38.83,44.72-2.75,68.68-.64,77.44-6.76-6-29.6-14-68.75-35.64C575,792.94,594,808,602.63,810.56c-8.55,2.87-26.93,18.64-65.26,41.73,38.33-23.09,60.87-32,67.39-38.19-1.77,8.83,2.68,32.65,3.51,77.38-.83-44.73,2.73-68.69.61-77.45,6.78,6,29.62,14,68.78,35.66C638.5,828.05,619.54,813,610.89,810.41Z"/></g><g class="cls-68"><path class="cls-69" d="M553.63,901.6C614.05,797,621.55,810,500.7,809.93c120.85,0,113.35,13,52.93-91.65,60.42,104.64,45.43,104.64,105.85,0-60.42,104.64-67.92,91.67,52.91,91.65-120.83,0-113.33-13-52.91,91.67C599.06,797,614.05,797,553.63,901.6Z"/></g></g></g></g></svg>