<svg xmlns="http://www.w3.org/2000/svg" viewBox="0 0 5000 5000"><defs><style>.cls-1{fill:#48a4b1;}.cls-2{fill:#37949b;}.cls-2,.cls-4{fill-rule:evenodd;}.cls-3{fill:#53b5bc;}.cls-4{fill:#5fbfc1;}.cls-5{fill:#92522e;}.cls-6{fill:#ad633c;}.cls-7{fill:#b2301f;}.cls-8{fill:#e25d30;}.cls-9{fill:#fff;}.cls-10{fill:#c3dde0;}.cls-11{fill:#ffa348;}.cls-12{fill:#f48f28;}.cls-13{fill:#72371a;}.cls-14{fill:#b0cbcc;}</style></defs><title>05</title><g id="Layer_2" data-name="Layer 2"><g id="illustration"><rect class="cls-1" width="5000" height="5000"/><path class="cls-2" d="M4644.28,4038.2H2469.71c-37.16,0,210.26-429.7,247.42-429.7H4461.41C4498.58,3608.5,4681.44,4038.2,4644.28,4038.2Z"/><path class="cls-3" d="M3502.45,612.09a36.26,36.26,0,0,0-36.26,36.26V998a36.27,36.27,0,1,0,72.53,0V648.35A36.27,36.27,0,0,0,3502.45,612.09Z"/><path class="cls-3" d="M2696.82,854.51A36.26,36.26,0,1,0,2634,890.77l174.84,302.83a36.26,36.26,0,1,0,62.81-36.26Z"/><path class="cls-3" d="M2373.63,1628.83,2070.8,1454a36.26,36.26,0,1,0-36.27,62.8l302.83,174.85a36.27,36.27,0,0,0,36.27-62.81Z"/><path class="cls-3" d="M2178.06,2286.16H1828.38a36.27,36.27,0,0,0,0,72.53h349.68a36.27,36.27,0,0,0,0-72.53Z"/><path class="cls-3" d="M2337.36,2953.21l-302.83,174.85a36.26,36.26,0,1,0,36.27,62.8L2373.63,3016a36.27,36.27,0,0,0-36.27-62.81Z"/><path class="cls-3" d="M4357.62,841.23a36.27,36.27,0,0,0-49.54,13.28l-174.84,302.83a36.26,36.26,0,1,0,62.81,36.26l174.84-302.83A36.28,36.28,0,0,0,4357.62,841.23Z"/><path class="cls-3" d="M4934.1,1454l-302.82,174.84a36.26,36.26,0,1,0,36.26,62.81l302.83-174.85a36.26,36.26,0,1,0-36.27-62.8Z"/><path class="cls-3" d="M5000,2286.16H4826.84a36.27,36.27,0,0,0,0,72.53H5000Z"/><path class="cls-3" d="M4970.37,3128.06l-302.83-174.85a36.27,36.27,0,0,0-36.27,62.81l302.83,174.84a36.26,36.26,0,1,0,36.27-62.8Z"/><path class="cls-3" d="M4196.05,3451.25a36.26,36.26,0,1,0-62.81,36.26l174.84,302.83a36.26,36.26,0,1,0,62.81-36.26Z"/><polygon class="cls-4" points="4654.91 3521.74 4626.19 3481.36 4611.62 3528.71 4564.34 3543.57 4604.88 3572.07 4604.39 3621.63 4644.02 3591.87 4690.99 3607.65 4674.95 3560.76 4704.47 3520.97 4654.91 3521.74"/><polygon class="cls-4" points="1494.26 1274.96 1465.53 1234.58 1450.96 1281.94 1403.68 1296.79 1444.22 1325.29 1443.73 1374.84 1483.36 1345.09 1530.34 1360.87 1514.29 1313.99 1543.81 1274.18 1494.26 1274.96"/><polygon class="cls-4" points="1398.68 2076.77 1370.99 2097.63 1338.1 2086.66 1349.39 2119.44 1328.78 2147.32 1363.45 2146.72 1383.6 2174.93 1393.74 2141.78 1426.79 2131.33 1398.39 2111.44 1398.68 2076.77"/><rect class="cls-5" x="3379.94" y="3080.78" width="376.45" height="598.46"/><polygon class="cls-5" points="4078.95 3970.41 4483.73 3970.41 4181.21 2619.75 3776.44 2619.75 4078.95 3970.41"/><polygon class="cls-6" points="4006.95 3970.41 4411.73 3970.41 4109.21 2619.75 3704.44 2619.75 4006.95 3970.41"/><path class="cls-5" d="M4109.21,2619.75H3704.44l219.28,979.05a1138.76,1138.76,0,0,0,361.54-193Z"/><polygon class="cls-5" points="3130.59 3970.41 2725.82 3970.41 3028.33 2619.75 3433.1 2619.75 3130.59 3970.41"/><polygon class="cls-6" points="3057.38 3970.41 2652.61 3970.41 2955.12 2619.75 3359.89 2619.75 3057.38 3970.41"/><path class="cls-5" d="M2775,3424.06a1137.54,1137.54,0,0,0,363.85,182.69l221.06-987H2955.12Z"/><circle class="cls-7" cx="3577.4" cy="2311.22" r="1141.46" transform="translate(-586.49 3206.55) rotate(-45)"/><circle class="cls-8" cx="3460.38" cy="2311.22" r="1141.46" transform="translate(-620.76 3123.8) rotate(-45)"/><circle class="cls-9" cx="3460.38" cy="2311.22" r="978.39" transform="translate(-620.76 3123.8) rotate(-45)"/><circle class="cls-8" cx="3460.38" cy="2311.22" r="815.33" transform="translate(-620.76 3123.8) rotate(-45)"/><circle class="cls-9" cx="3460.38" cy="2311.22" r="652.26"/><circle class="cls-8" cx="3460.38" cy="2311.22" r="489.2" transform="translate(-620.76 3123.8) rotate(-45)"/><circle class="cls-9" cx="3460.38" cy="2311.22" r="326.13" transform="translate(-620.76 3123.8) rotate(-45)"/><circle class="cls-8" cx="3460.38" cy="2311.22" r="163.07" transform="translate(624.71 5356.7) rotate(-80.78)"/><path class="cls-7" d="M3454.21,2360.21c-24.26,0-43.93-23.42-43.93-52.32s19.67-52.32,43.93-52.32,43.92,23.42,43.92,52.32S3478.46,2360.21,3454.21,2360.21Z"/><path class="cls-10" d="M2933.82,3108.6c-24.26,0-43.93-23.42-43.93-52.32s19.67-52.32,43.93-52.32,43.92,23.42,43.92,52.32S2958.08,3108.6,2933.82,3108.6Z"/><path class="cls-7" d="M3546.21,1628.21c-24.26,0-43.93-23.42-43.93-52.32s19.67-52.32,43.93-52.32,43.92,23.42,43.92,52.32S3570.46,1628.21,3546.21,1628.21Z"/><polygon class="cls-11" points="355.52 2701.58 171.04 2884.97 792.12 2884.97 976.6 2701.58 355.52 2701.58"/><polygon class="cls-12" points="274.97 2781.65 355.52 2701.58 976.6 2701.58 896.06 2781.65 274.97 2781.65"/><polygon class="cls-11" points="355.52 2670.16 171.04 2486.78 792.12 2486.78 976.6 2670.16 355.52 2670.16"/><polygon class="cls-12" points="688.14 2486.78 633.89 2486.78 818.37 2670.16 872.62 2670.16 688.14 2486.78"/><polygon class="cls-12" points="456.07 2486.78 401.82 2486.78 586.3 2670.16 640.55 2670.16 456.07 2486.78"/><polygon class="cls-12" points="572.11 2486.78 517.86 2486.78 702.34 2670.16 756.59 2670.16 572.11 2486.78"/><polygon class="cls-12" points="340.03 2486.78 285.78 2486.78 470.26 2670.16 524.51 2670.16 340.03 2486.78"/><polygon class="cls-12" points="688.14 2884.97 633.89 2884.97 818.37 2701.58 872.63 2701.58 688.14 2884.97"/><polygon class="cls-12" points="456.07 2884.97 401.82 2884.97 586.3 2701.58 640.55 2701.58 456.07 2884.97"/><polygon class="cls-12" points="572.11 2884.97 517.86 2884.97 702.34 2701.58 756.59 2701.58 572.11 2884.97"/><polygon class="cls-12" points="340.04 2884.97 285.78 2884.97 470.26 2701.58 524.51 2701.58 340.04 2884.97"/><polygon class="cls-12" points="274.97 2590.09 355.52 2670.16 976.6 2670.16 896.06 2590.09 274.97 2590.09"/><rect class="cls-5" x="289.52" y="2640.65" width="1542.69" height="90.44"/><rect class="cls-13" x="289.52" y="2684.67" width="1542.69" height="46.42"/><rect class="cls-13" x="608.44" y="2640.65" width="28.18" height="90.44"/><rect class="cls-13" x="546.1" y="2640.65" width="28.17" height="90.44"/><rect class="cls-13" x="485.13" y="2640.65" width="28.18" height="90.44"/><polygon class="cls-13" points="1747.05 2640.65 1774.43 2685.87 1747.05 2731.09 1832.21 2731.09 1832.21 2640.65 1747.05 2640.65"/><polygon class="cls-10" points="1829.65 2685.87 1748.37 2581.68 2200.3 2685.87 1829.65 2685.87"/><polygon class="cls-14" points="1829.65 2685.87 1748.37 2790.07 2200.3 2685.87 1829.65 2685.87"/><polygon class="cls-11" points="2054.01 1584.8 1917.59 1720.4 2376.85 1720.4 2513.26 1584.8 2054.01 1584.8"/><polygon class="cls-12" points="1994.45 1644 2054.01 1584.8 2513.26 1584.8 2453.7 1644 1994.45 1644"/><polygon class="cls-11" points="2054 1561.56 1917.59 1425.96 2376.85 1425.96 2513.26 1561.56 2054 1561.56"/><polygon class="cls-12" points="2299.96 1425.96 2259.84 1425.96 2396.26 1561.56 2436.37 1561.56 2299.96 1425.96"/><polygon class="cls-12" points="2128.35 1425.96 2088.24 1425.96 2224.65 1561.56 2264.77 1561.56 2128.35 1425.96"/><polygon class="cls-12" points="2214.16 1425.96 2174.04 1425.96 2310.45 1561.56 2350.57 1561.56 2214.16 1425.96"/><polygon class="cls-12" points="2042.56 1425.96 2002.44 1425.96 2138.85 1561.56 2178.97 1561.56 2042.56 1425.96"/><polygon class="cls-12" points="2299.96 1720.4 2259.84 1720.4 2396.26 1584.8 2436.37 1584.8 2299.96 1720.4"/><polygon class="cls-12" points="2128.36 1720.4 2088.24 1720.4 2224.65 1584.8 2264.77 1584.8 2128.36 1720.4"/><polygon class="cls-12" points="2214.16 1720.4 2174.04 1720.4 2310.45 1584.8 2350.57 1584.8 2214.16 1720.4"/><polygon class="cls-12" points="2042.56 1720.4 2002.44 1720.4 2138.85 1584.8 2178.97 1584.8 2042.56 1720.4"/><polygon class="cls-12" points="1994.45 1502.36 2054 1561.56 2513.26 1561.56 2453.7 1502.36 1994.45 1502.36"/><path class="cls-5" d="M3552.09,1539.74H2005.2v66.88H3552.09c8.63,0,15.63-15,15.63-33.44S3560.72,1539.74,3552.09,1539.74Z"/><rect class="cls-13" x="2005.2" y="1572.29" width="1546.89" height="34.33"/><path class="cls-13" d="M3567.72,1573.18c0-.3,0-.59,0-.89H2005.2v34.33H3552.09C3560.72,1606.62,3567.72,1591.65,3567.72,1573.18Z"/><rect class="cls-13" x="2241.03" y="1539.74" width="20.83" height="66.88"/><rect class="cls-13" x="2194.92" y="1539.74" width="20.83" height="66.88"/><rect class="cls-13" x="2149.85" y="1539.74" width="20.83" height="66.88"/><polygon class="cls-11" points="1965.28 2319.01 1828.87 2454.61 2288.12 2454.61 2424.53 2319.01 1965.28 2319.01"/><polygon class="cls-12" points="1905.72 2378.21 1965.28 2319.01 2424.53 2319.01 2364.97 2378.21 1905.72 2378.21"/><polygon class="cls-11" points="1965.28 2295.77 1828.87 2160.17 2288.12 2160.17 2424.53 2295.77 1965.28 2295.77"/><polygon class="cls-12" points="2211.23 2160.17 2171.12 2160.17 2307.53 2295.77 2347.64 2295.77 2211.23 2160.17"/><polygon class="cls-12" points="2039.63 2160.17 1999.51 2160.17 2135.93 2295.77 2176.04 2295.77 2039.63 2160.17"/><polygon class="cls-12" points="2125.43 2160.17 2085.32 2160.17 2221.73 2295.77 2261.84 2295.77 2125.43 2160.17"/><polygon class="cls-12" points="1953.83 2160.17 1913.71 2160.17 2050.12 2295.77 2090.24 2295.77 1953.83 2160.17"/><polygon class="cls-12" points="2211.23 2454.61 2171.12 2454.61 2307.53 2319.01 2347.65 2319.01 2211.23 2454.61"/><polygon class="cls-12" points="2039.63 2454.61 1999.51 2454.61 2135.93 2319.01 2176.04 2319.01 2039.63 2454.61"/><polygon class="cls-12" points="2125.43 2454.61 2085.32 2454.61 2221.73 2319.01 2261.84 2319.01 2125.43 2454.61"/><polygon class="cls-12" points="1953.83 2454.61 1913.71 2454.61 2050.12 2319.01 2090.24 2319.01 1953.83 2454.61"/><polygon class="cls-12" points="1905.72 2236.57 1965.28 2295.77 2424.53 2295.77 2364.97 2236.57 1905.72 2236.57"/><path class="cls-5" d="M3463.37,2274H1916.47v66.88h1546.9c8.63,0,15.62-15,15.62-33.44S3472,2274,3463.37,2274Z"/><rect class="cls-13" x="1916.47" y="2306.5" width="1546.89" height="34.33"/><path class="cls-13" d="M3479,2307.39c0-.3,0-.59,0-.89H1916.47v34.33h1546.9C3472,2340.83,3479,2325.86,3479,2307.39Z"/><rect class="cls-13" x="2152.3" y="2273.95" width="20.83" height="66.88"/><rect class="cls-13" x="2106.2" y="2273.95" width="20.83" height="66.88"/><rect class="cls-13" x="2061.12" y="2273.95" width="20.83" height="66.88"/><polygon class="cls-11" points="1436.34 3066.11 1299.93 3201.72 1759.18 3201.72 1895.6 3066.11 1436.34 3066.11"/><polygon class="cls-12" points="1376.78 3125.32 1436.34 3066.11 1895.6 3066.11 1836.04 3125.32 1376.78 3125.32"/><polygon class="cls-11" points="1436.34 3042.88 1299.93 2907.28 1759.18 2907.28 1895.6 3042.88 1436.34 3042.88"/><polygon class="cls-12" points="1682.3 2907.28 1642.18 2907.28 1778.59 3042.88 1818.71 3042.88 1682.3 2907.28"/><polygon class="cls-12" points="1510.69 2907.28 1470.58 2907.28 1606.99 3042.88 1647.1 3042.88 1510.69 2907.28"/><polygon class="cls-12" points="1596.49 2907.28 1556.38 2907.28 1692.79 3042.88 1732.91 3042.88 1596.49 2907.28"/><polygon class="cls-12" points="1424.89 2907.28 1384.78 2907.28 1521.19 3042.88 1561.3 3042.88 1424.89 2907.28"/><polygon class="cls-12" points="1682.3 3201.72 1642.18 3201.72 1778.59 3066.11 1818.71 3066.11 1682.3 3201.72"/><polygon class="cls-12" points="1510.69 3201.72 1470.58 3201.72 1606.99 3066.11 1647.11 3066.11 1510.69 3201.72"/><polygon class="cls-12" points="1596.5 3201.72 1556.38 3201.72 1692.79 3066.11 1732.91 3066.11 1596.5 3201.72"/><polygon class="cls-12" points="1424.89 3201.72 1384.78 3201.72 1521.19 3066.11 1561.3 3066.11 1424.89 3201.72"/><polygon class="cls-12" points="1376.78 2983.67 1436.34 3042.88 1895.6 3042.88 1836.04 2983.67 1376.78 2983.67"/><path class="cls-5" d="M2934.43,3021.06H1387.54v66.87H2934.43c8.63,0,15.62-15,15.62-33.43S2943.06,3021.06,2934.43,3021.06Z"/><rect class="cls-13" x="1387.54" y="3053.61" width="1546.89" height="34.33"/><path class="cls-13" d="M2950.05,3054.5c0-.3,0-.6,0-.89H1387.54v34.32H2934.43C2943.06,3087.93,2950.05,3073,2950.05,3054.5Z"/><rect class="cls-13" x="1623.36" y="3021.06" width="20.83" height="66.88"/><rect class="cls-13" x="1577.26" y="3021.06" width="20.83" height="66.88"/><rect class="cls-13" x="1532.18" y="3021.06" width="20.83" height="66.88"/></g></g></svg>