<svg xmlns="http://www.w3.org/2000/svg" viewBox="0 0 1200 1200"><defs><style>.cls-1{fill:#2eaeb7;}.cls-2{fill:#231f20;opacity:0.2;}.cls-3{fill:#bcbec0;}.cls-4{fill:#e6e7e8;}.cls-5{fill:#d1d3d4;}.cls-6{fill:#f6ffff;}.cls-7{fill:#df3f18;}.cls-8{fill:#b22b14;}.cls-9{fill:#f36a3d;}.cls-10{fill:#f2ab1d;}.cls-11{fill:none;}.cls-12{fill:#ce4121;}.cls-13{fill:#384855;}.cls-14{fill:#db532e;}.cls-15{fill:#ef941b;}</style></defs><title>06</title><g id="Layer_2" data-name="Layer 2"><g id="bg"><rect class="cls-1" width="1200" height="1200"/></g><g id="Target_with_arrow" data-name="Target with arrow"><ellipse class="cls-2" cx="600" cy="1077.78" rx="400.78" ry="56.22"/><path class="cls-3" d="M615,1032.17c0,11.23-7.32,19.83-16.3,19.83h-3.27c-9,0-16.43-8.6-16.43-19.83V86.62C579,75.39,586.45,66,595.43,66h3.27c9,0,16.3,9.39,16.3,20.62Z"/><path class="cls-4" d="M226.42,1074.47c-4.58,11.64-15.06,18.5-23.3,15.26l-3-1.18c-8.24-3.24-11.24-15.42-6.66-27L579,82.07c4.58-11.64,15.07-18.51,23.31-15.26l3,1.18C613.54,71.23,616.53,83.4,612,95Z"/><path class="cls-5" d="M615.1,82.07C610.52,70.43,600,63.56,591.79,66.81l-3,1.18c-8.24,3.24-11.24,15.41-6.66,27.05l385.53,979.43c4.58,11.64,15.07,18.5,23.31,15.26l3-1.18c8.24-3.24,11.23-15.42,6.65-27Z"/><path class="cls-2" d="M943.05,361C871.56,244.89,743.29,167.48,596.93,167.48S322.3,244.89,250.8,361Z"/><path class="cls-2" d="M292.67,809l-9,23.27c11.1,13.65,13.86,17,26.61,29.12l8.53-21.67,7.17,7.53V840h10.67v-.33H351v-16h48.67v41h43v13H579V979.46q8.91.39,17.93.39t18.07-.39v-81H770V864h71.67V844.33l33.53-4.77,8.54,21.69a229,229,0,0,0,26.75-28.75c.25-.31.14.4,0,0,0-.15-8.13-20.72-8.21-21Z"/><circle class="cls-6" cx="596.93" cy="543.67" r="406.19"/><circle class="cls-7" cx="596.93" cy="543.67" r="328.36"/><circle class="cls-6" cx="596.93" cy="543.67" r="255.25"/><circle class="cls-7" cx="596.93" cy="543.67" r="183.26" transform="translate(-209.59 581.33) rotate(-45)"/><circle class="cls-6" cx="596.93" cy="543.67" r="110.62" transform="translate(-209.59 581.33) rotate(-45)"/><circle class="cls-7" cx="596.93" cy="543.67" r="51.69" transform="translate(-209.59 581.33) rotate(-45)"/><polygon class="cls-2" points="991.74 448.7 990.12 441.33 590.54 535.5 596.79 557.63 995.27 463.82 991.74 448.7 991.74 448.7"/><path class="cls-8" d="M1088.62,179.13a12.36,12.36,0,0,0-3.8,1.24l-2.82,2L583.43,538.94l13.36,18.69,495.77-354.37,8.61-6.15.21-.39a12.22,12.22,0,0,0-12.76-17.59Z"/><polygon class="cls-9" points="990.3 184.89 978.02 193.67 979.04 257.49 991.5 248.58 990.3 184.89"/><polygon class="cls-10" points="1002.14 176.42 989.86 185.2 991.05 248.9 1003.51 239.99 1002.14 176.42"/><polygon class="cls-9" points="1013.98 167.96 1001.7 176.74 1003.07 240.31 1015.52 231.4 1013.98 167.96"/><polygon class="cls-10" points="1025.82 159.49 1013.54 168.27 1015.08 231.72 1027.53 222.81 1025.82 159.49"/><polygon class="cls-9" points="1037.65 151.03 1025.38 159.81 1027.09 223.13 1039.55 214.22 1037.65 151.03"/><polygon class="cls-10" points="1049.49 142.56 1037.21 151.34 1039.1 214.54 1051.56 205.63 1049.49 142.56"/><polygon class="cls-9" points="1061.33 134.09 1049.05 142.87 1051.11 205.95 1063.57 197.04 1061.33 134.09"/><polygon class="cls-10" points="1073.17 125.63 1060.89 134.41 1063.12 197.36 1075.58 188.45 1073.17 125.63"/><polygon class="cls-9" points="1085.01 117.16 1072.73 125.94 1075.14 188.77 1087.59 179.86 1085.01 117.16"/><path class="cls-11" d="M1087.55,179.38c-.29.07-.58.12-.86.21C1087,179.5,1087.26,179.45,1087.55,179.38Z"/><path class="cls-12" d="M1088.61,179.13h0c-.35.06-.71.17-1.06.25s-.58.12-.86.21a11.21,11.21,0,0,0-1.87.78l-2.82,2L583.43,538.94,593,552.29l490.68-350.91,13.81-9.88,4.81-3.43a12.19,12.19,0,0,0-13.66-8.94Z"/><path class="cls-13" d="M1084.82,180.37a11.21,11.21,0,0,1,1.87-.78A11.21,11.21,0,0,0,1084.82,180.37Z"/><path class="cls-13" d="M1087.55,179.38c.35-.08.71-.19,1.06-.25h0C1088.26,179.19,1087.9,179.3,1087.55,179.38Z"/><polygon class="cls-14" points="1060.98 282.32 1048.7 291.1 988.63 269.5 1001.09 260.6 1060.98 282.32"/><polygon class="cls-15" points="1072.81 273.85 1060.54 282.63 1000.64 260.91 1013.1 252.01 1072.81 273.85"/><polygon class="cls-14" points="1084.65 265.39 1072.38 274.17 1012.66 252.32 1025.11 243.41 1084.65 265.39"/><polygon class="cls-15" points="1096.49 256.92 1084.21 265.7 1024.67 243.73 1037.12 234.82 1096.49 256.92"/><polygon class="cls-14" points="1108.33 248.45 1096.05 257.23 1036.68 235.14 1049.13 226.24 1108.33 248.45"/><polygon class="cls-15" points="1120.17 239.99 1107.89 248.77 1048.69 226.55 1061.15 217.65 1120.17 239.99"/><polygon class="cls-14" points="1132.01 231.52 1119.73 240.3 1060.7 217.96 1073.16 209.06 1132.01 231.52"/><polygon class="cls-15" points="1143.84 223.06 1131.57 231.84 1072.71 209.37 1085.17 200.47 1143.84 223.06"/><polygon class="cls-14" points="1155.68 214.59 1143.4 223.37 1084.73 200.78 1097.18 191.88 1155.68 214.59"/></g></g></svg>