<svg xmlns="http://www.w3.org/2000/svg" viewBox="0 0 231.66 221.98"><defs><style>.cls-1{fill:#7c4d26;}.cls-2{fill:#fcea1b;}</style></defs><title>nimble02</title><g id="Layer_2" data-name="Layer 2"><g id="Layer_1-2" data-name="Layer 1"><path class="cls-1" d="M190.61,199.77a1.64,1.64,0,0,0-1.27-.65,2.38,2.38,0,0,0-1,.26c-.55.25-1.41.73-2.49,1.36,1.51-1.19,2.84-2.27,3.84-3.11.55-.47,1-.86,1.33-1.17.17-.17.31-.3.45-.46a2.13,2.13,0,0,0,.22-.3,1.52,1.52,0,0,0,.26-.87,1.45,1.45,0,0,0-.16-.68l0-.09a1.6,1.6,0,0,0-1.4-.78,3.4,3.4,0,0,0-1.35.36c-1.37.61-3.93,2.06-7.11,4,3.51-2.43,6.73-4.68,9.22-6.49,1.48-1.08,2.7-2,3.57-2.72.44-.37.8-.68,1.08-1a2.71,2.71,0,0,0,.41-.47,1.77,1.77,0,0,0,.36-1.05,1.57,1.57,0,0,0-1.6-1.58,3.87,3.87,0,0,0-1.57.46c-1.82.84-5.53,3-10.14,5.73,5.07-3.3,9.73-6.35,13.29-8.78,2.07-1.4,3.76-2.59,5-3.51.61-.46,1.09-.85,1.46-1.19a6.39,6.39,0,0,0,.5-.54,1.73,1.73,0,0,0,.45-1.16,1.6,1.6,0,0,0-1.64-1.59,4.85,4.85,0,0,0-1.85.55c-2.48,1.14-7.75,4.19-14.25,8.09,2.73-1.79,5.23-3.45,7.36-4.9s4.09-2.81,5.4-3.81c.66-.5,1.18-.91,1.58-1.28a4.64,4.64,0,0,0,.53-.56,1.8,1.8,0,0,0,.46-1.19,1.51,1.51,0,0,0-.21-.79,1.68,1.68,0,0,0-1.46-.81,5.32,5.32,0,0,0-1.95.57c-1.74.78-4.7,2.39-8.44,4.55l3.19-2.08c2.46-1.62,4.48-3,5.91-4,.72-.52,1.28-.95,1.71-1.32a7.53,7.53,0,0,0,.57-.55,1.78,1.78,0,0,0,.51-1.23,1.61,1.61,0,0,0-.16-.71l-.05-.09a1.66,1.66,0,0,0-1.43-.79,5,5,0,0,0-1.93.58c-2.36,1.07-7.06,3.75-13,7.25,2.59-1.66,5-3.21,7-4.58,2.47-1.64,4.49-3,5.92-4.11.72-.54,1.29-1,1.73-1.4a6.81,6.81,0,0,0,.59-.62,2,2,0,0,0,.46-1.21,1.68,1.68,0,0,0-.19-.76,1.65,1.65,0,0,0-.84-.74,2,2,0,0,0-.61-.11,5.27,5.27,0,0,0-2,.63c-1.86.86-5.18,2.71-9.42,5.18,2.31-1.52,4.22-2.81,5.59-3.82.74-.54,1.33-1,1.78-1.4a6.65,6.65,0,0,0,.59-.6,1.93,1.93,0,0,0,.48-1.23,1.66,1.66,0,0,0-.2-.8,1.63,1.63,0,0,0-1.4-.79,4.74,4.74,0,0,0-1.83.58c-3.21,1.51-11.41,6.37-21,12.17,4.34-2.8,8.29-5.38,11.44-7.51,2.21-1.5,4-2.77,5.31-3.76a20.07,20.07,0,0,0,1.56-1.3,5,5,0,0,0,.54-.59,1.81,1.81,0,0,0,.43-1.17,1.62,1.62,0,0,0-.2-.79,1.66,1.66,0,0,0-1.47-.82,5.05,5.05,0,0,0-2,.58c-2.5,1.13-7.52,4-13.78,7.75,2.1-1.34,4-2.59,5.76-3.71,2.38-1.56,4.34-2.88,5.73-3.87.69-.5,1.24-.92,1.65-1.27a5.64,5.64,0,0,0,.56-.52,1.8,1.8,0,0,0,.52-1.23,1.54,1.54,0,0,0-.24-.83,1.61,1.61,0,0,0-1.36-.74,4.49,4.49,0,0,0-1.8.58c-1.4.67-3.78,2-6.83,3.78l2.16-1.41c2.41-1.6,4.39-3,5.79-4,.7-.52,1.26-1,1.69-1.34a6.33,6.33,0,0,0,.57-.59,1.86,1.86,0,0,0,.47-1.21,1.52,1.52,0,0,0-.19-.75l0-.08a1.63,1.63,0,0,0-1.39-.76,5.15,5.15,0,0,0-1.93.62c-5.14,2.43-22.1,12.85-38.37,22.74l-3,1.82,8.49-5.43c6.32-4,12.22-7.86,16.56-10.77,2.18-1.46,4-2.7,5.22-3.65a17.59,17.59,0,0,0,1.52-1.23,3.86,3.86,0,0,0,.53-.54,1.77,1.77,0,0,0,.46-1.18,1.48,1.48,0,0,0-.17-.71l-.06-.11a1.65,1.65,0,0,0-1.39-.76,4.21,4.21,0,0,0-1.63.48c-2.12,1-6.62,3.59-12.16,6.92,2.76-1.81,5.28-3.48,7.37-4.92,1.87-1.27,3.4-2.35,4.49-3.19a16.81,16.81,0,0,0,1.33-1.11,5.88,5.88,0,0,0,.48-.51,1.8,1.8,0,0,0,.41-1.13,1.51,1.51,0,0,0-.21-.8,1.67,1.67,0,0,0-1.4-.79,4.56,4.56,0,0,0-1.74.54c-3.93,1.82-15.6,8.9-27.71,16.26l2-1.34c3.79-2.58,7.17-4.92,9.62-6.7,1.22-.9,2.21-1.65,2.93-2.25.36-.31.65-.57.9-.82a3.4,3.4,0,0,0,.36-.44,1.79,1.79,0,0,0,.32-1,1.6,1.6,0,0,0-.19-.75l0-.09a1.62,1.62,0,0,0-1.34-.73,3.46,3.46,0,0,0-1.42.42c-2.61,1.21-9.75,5.53-17.51,10.25,2.9-2.05,5.57-4,7.62-5.46,1.24-.91,2.26-1.68,3-2.27.36-.29.66-.54.9-.77a4.33,4.33,0,0,0,.34-.38,1.55,1.55,0,0,0,.4-1.06,1.52,1.52,0,0,0-.22-.79,1.63,1.63,0,0,0-1.33-.75,2.82,2.82,0,0,0-1.24.36c-2,.95-7.51,4.26-13.52,7.91,2.57-1.93,4.94-3.73,6.74-5.16,1-.78,1.82-1.45,2.41-2,.3-.27.55-.5.76-.73a4.84,4.84,0,0,0,.31-.39,1.7,1.7,0,0,0,.31-1,1.63,1.63,0,0,0-.21-.77,1.48,1.48,0,0,0-.76-.66,1.61,1.61,0,0,0-.57-.11,1.81,1.81,0,0,0-.89.24c-1.18.56-4.42,2.57-7.62,4.52-1.59,1-3.14,1.91-4.32,2.6l-1.43.81-.31.15a1.3,1.3,0,0,0-.42.14,1.49,1.49,0,0,0-.67,2h0a1.61,1.61,0,0,0,.87.76l.13,0-6.08,4.54c-2.23,1.68-4.21,3.18-5.65,4.33q-1.09.85-1.74,1.44a5.85,5.85,0,0,0-.56.54,3.51,3.51,0,0,0-.26.32,1.65,1.65,0,0,0-.29.93,1.41,1.41,0,0,0,0,.36,1.44,1.44,0,0,0,.15.37h0a1.57,1.57,0,0,0,.19.27h0a1.48,1.48,0,0,0,1.17.54,2.91,2.91,0,0,0,1.24-.36c1.2-.56,3.61-1.94,6.61-3.73-2.24,1.6-4.28,3.07-5.94,4.29-1.23.91-2.25,1.68-3,2.28-.37.3-.66.56-.91.8a3.28,3.28,0,0,0-.35.38,1.61,1.61,0,0,0-.38,1.06,1.59,1.59,0,0,0,.28.88h0a1.57,1.57,0,0,0,1.3.67,3.51,3.51,0,0,0,1.42-.42c1.88-.87,6.09-3.34,11.18-6.4-4.33,2.9-8.34,5.61-11.35,7.7-1.64,1.15-3,2.11-3.94,2.84-.48.37-.87.67-1.17.94a5.7,5.7,0,0,0-.42.43,1.59,1.59,0,0,0-.12,2.08h0a1.54,1.54,0,0,0,1.27.62,4.5,4.5,0,0,0,1.73-.53c3.08-1.45,11.07-6.21,20.29-11.79-3.09,2-5.89,3.89-8.2,5.48-1.86,1.28-3.39,2.38-4.49,3.24a15,15,0,0,0-1.33,1.13,3.56,3.56,0,0,0-.48.54,1.83,1.83,0,0,0-.4,1.12,1.68,1.68,0,0,0,.29.92h0a1.58,1.58,0,0,0,1.33.68,4,4,0,0,0,1.62-.49c1.14-.52,3-1.52,5.3-2.86-3,2-5.83,3.83-8.16,5.42s-4,2.75-5.23,3.73c-.64.5-1.14.92-1.54,1.3a5,5,0,0,0-.53.59,1.87,1.87,0,0,0-.42,1.16,1.71,1.71,0,0,0,.28.91h0a1.64,1.64,0,0,0,1.38.71,5.4,5.4,0,0,0,2-.61c2.47-1.13,7.42-3.95,13.64-7.64l-2.46,1.6c-2.41,1.57-4.39,2.9-5.78,3.9-.7.5-1.26.92-1.68,1.28a7.11,7.11,0,0,0-.56.53,1.8,1.8,0,0,0-.52,1.23,1.64,1.64,0,0,0,.32.94h0a1.58,1.58,0,0,0,1.34.66,5,5,0,0,0,1.91-.56c1.18-.53,3-1.45,5.15-2.68l-.15.1c-2.4,1.59-4.36,3-5.75,4-.7.53-1.25,1-1.68,1.36a5.24,5.24,0,0,0-.56.6,1.89,1.89,0,0,0-.47,1.2,1.65,1.65,0,0,0,.3.92h0a1.61,1.61,0,0,0,1.36.69,5,5,0,0,0,1.92-.59c4.23-1.94,16.08-9.16,28.81-16.95l-.28.17c-6.43,4.1-12.44,8-16.85,10.93-2.21,1.48-4,2.74-5.31,3.71a18.41,18.41,0,0,0-1.55,1.27,4.76,4.76,0,0,0-.54.56,1.8,1.8,0,0,0-.45,1.18,1.61,1.61,0,0,0,.25.86,1.52,1.52,0,0,0,1.36.72,4.63,4.63,0,0,0,1.83-.58c.94-.44,2.3-1.16,4-2.11l-1.6,1c-2.53,1.65-4.61,3.06-6.09,4.14-.73.54-1.32,1-1.77,1.39a5.56,5.56,0,0,0-.59.6,1.84,1.84,0,0,0-.49,1.23,1.65,1.65,0,0,0,.24.83,1.53,1.53,0,0,0,1.37.75,2.6,2.6,0,0,0,1-.22c2-.77,7.17-3.74,14.24-7.94,3.82-2.26,8.14-4.86,12.68-7.61-5.4,3.41-10.35,6.57-14.21,9.14-2.46,1.64-4.48,3-5.92,4.12a21.6,21.6,0,0,0-1.73,1.41,5.8,5.8,0,0,0-.59.63,2,2,0,0,0-.45,1.21,1.69,1.69,0,0,0,.26.88h0a1.59,1.59,0,0,0,1.37.72,4.87,4.87,0,0,0,1.88-.59c2.16-1,6.47-3.49,11.93-6.74-2.19,1.41-4.2,2.72-6,3.9-2.46,1.63-4.48,3-5.91,4.06-.72.53-1.28,1-1.72,1.35a6.13,6.13,0,0,0-.57.57,1.86,1.86,0,0,0-.5,1.22,1.73,1.73,0,0,0,.25.85,1.58,1.58,0,0,0,.78.63,2,2,0,0,0,.57.1,2.51,2.51,0,0,0,1-.22c1.85-.72,6.5-3.43,12.92-7.27,6.91-4.14,15.68-9.52,24.19-14.69l-8.34,5.35C154.77,199,148.66,203,144.17,206c-2.24,1.49-4.08,2.75-5.38,3.7-.65.48-1.17.87-1.56,1.21a6.36,6.36,0,0,0-.53.5,1.75,1.75,0,0,0-.51,1.21,1.61,1.61,0,0,0,.34,1h0a1.55,1.55,0,0,0,1.29.61,4.7,4.7,0,0,0,1.83-.55c3.71-1.71,13.78-7.8,24.9-14.59-5.44,3.55-10.48,6.87-14.27,9.47-2.07,1.42-3.76,2.63-5,3.57-.61.47-1.09.87-1.47,1.23a6.91,6.91,0,0,0-.51.57,2,2,0,0,0-.42,1.15,1.72,1.72,0,0,0,.24.84,1.59,1.59,0,0,0,.81.65,1.53,1.53,0,0,0,.56.09,3.83,3.83,0,0,0,1.56-.46c3.59-1.67,14.62-8.43,25.49-15.07l-2.88,2c-4.31,3-8.33,5.76-11.29,7.91-1.49,1.08-2.7,2-3.58,2.7-.44.36-.79.66-1.08.94s-.26.28-.4.46a1.72,1.72,0,0,0-.37,1.07,1.61,1.61,0,0,0,.29.91h0a1.51,1.51,0,0,0,1.29.65,3.19,3.19,0,0,0,1.31-.38c2.77-1.29,11.2-6.54,19.38-11.55l2-1.23-1.19.95c-1.69,1.34-3.19,2.56-4.28,3.49-.55.47-1,.87-1.34,1.19-.17.17-.32.32-.46.48a3.2,3.2,0,0,0-.22.31,1.6,1.6,0,0,0-.24.85,1.5,1.5,0,0,0,0,.37,1.46,1.46,0,0,0,.16.39.57.57,0,0,0,.08.13l.07.1a1.66,1.66,0,0,0,.69.47,1.54,1.54,0,0,0,.52.08,2.4,2.4,0,0,0,1-.25c1.65-.75,6-3.47,10.31-6.11,2.13-1.31,4.19-2.58,5.77-3.51.79-.46,1.46-.85,1.94-1.1l.47-.24a1.38,1.38,0,0,0,.71-.27A1.49,1.49,0,0,0,190.61,199.77Z"/><path class="cls-2" d="M216.13,210.25a1.56,1.56,0,0,0-.68-.63,1.65,1.65,0,0,0-1.41.06c-.8.37-2.61,1.49-4.46,2.62l-1.6,1,0-.57c0-.57-.06-1.12-.08-1.53,0-.22,0-.39,0-.53s0-.14,0-.21a1.05,1.05,0,0,0,0-.13,1.2,1.2,0,0,0-.18-.5l-.13-.19a1.6,1.6,0,0,0-1.18-.57,1.7,1.7,0,0,0-.61.12c-.5.22-1.09.58-2.09,1.16l-1.56.94c.55-.69,1.06-1.34,1.47-1.88s.57-.75.77-1,.18-.27.26-.41a1.64,1.64,0,0,0,.27-.91,1.14,1.14,0,0,0-.08-.49l-.2-.4a1.59,1.59,0,0,0-.66-.52,1.33,1.33,0,0,0-.58-.11,1.64,1.64,0,0,0-.6.11,21.73,21.73,0,0,0-2.29,1.27L198.55,208c.74-.87,1.43-1.7,2-2.37.35-.43.64-.79.87-1.09.11-.15.2-.27.29-.41l.14-.23a1.49,1.49,0,0,0,.18-.75,1.24,1.24,0,0,0-.16-.67l-.28-.39s0-.08-.39-.29a1.68,1.68,0,0,0-.52-.15h-.15a1.51,1.51,0,0,0-.53.1,4.74,4.74,0,0,0-.64.33c-.82.46-2.55,1.48-4.1,2.4l-2,1.19-.64.37-.12.06A1.5,1.5,0,0,0,193,209a1.2,1.2,0,0,0,.52-.1,3.46,3.46,0,0,0,.58-.29c-.69.82-1.34,1.6-1.86,2.25-.36.44-.65.81-.88,1.12s-.21.29-.3.44a1.92,1.92,0,0,0-.14.26,1.62,1.62,0,0,0-.16.7,1.31,1.31,0,0,0,.12.57h0a.89.89,0,0,0,.08.17.71.71,0,0,0,.16.24h0a1.65,1.65,0,0,0,.63.45,1.58,1.58,0,0,0,.54.09,1.83,1.83,0,0,0,.83-.2c.78-.37,2.47-1.39,4.36-2.53-.55.7-1.07,1.35-1.49,1.9s-.57.74-.76,1-.18.26-.26.39a2.39,2.39,0,0,0-.13.24,1.51,1.51,0,0,0-.16.69,1.56,1.56,0,0,0,.12.58,1.71,1.71,0,0,0,.14.27,1.63,1.63,0,0,0,.17.2l.14.13h0a1.3,1.3,0,0,0,.52.27,1.81,1.81,0,0,0,.43.07,1.88,1.88,0,0,0,.82-.21c.88-.42,3.18-1.83,5.47-3.21L205,213l0,.54c0,.57.06,1.12.09,1.55q0,.32,0,.54l0,.22a1.25,1.25,0,0,0,0,.15c0,.05,0,.09.06.2a1.53,1.53,0,0,0,.95.94,1.84,1.84,0,0,0,.48.08,1.58,1.58,0,0,0,.78-.2c.78-.37,2.59-1.5,4.44-2.61.91-.56,1.79-1.09,2.45-1.48.33-.2.61-.35.79-.45l.08,0a1.37,1.37,0,0,0,.38-.15A1.5,1.5,0,0,0,216.13,210.25Z"/><path class="cls-2" d="M128,213.61a1.48,1.48,0,0,0-1.25-.67l-.19,0c0-.24-.09-.48-.13-.71-.11-.56-.22-1.1-.3-1.52,0-.2-.08-.38-.11-.52s0-.13,0-.2a1.51,1.51,0,0,0-.18-.45l-.05-.08a1.65,1.65,0,0,0-.49-.47,1.48,1.48,0,0,0-.77-.2,1.47,1.47,0,0,0-.75.18c-.64.31-2,1.16-3.42,2l-1.61,1-.79-1.13-.73-1-.24-.34,0-.07a1.64,1.64,0,0,0-.7-.62,1.5,1.5,0,0,0-.61-.12,1.91,1.91,0,0,0-.76.18,3.16,3.16,0,0,0-.32.16l2-2.33c.37-.44.68-.81.91-1.11l.3-.4c0-.07.09-.14.15-.24a1.53,1.53,0,0,0,.2-.77,1.51,1.51,0,0,0-.16-.68l-.11-.18a1.59,1.59,0,0,0-1.27-.66,2.43,2.43,0,0,0-1,.26c-1.52.7-5.77,3.28-10,5.84,1-1,1.9-1.94,2.64-2.71.5-.52.91-1,1.22-1.31.16-.17.28-.32.4-.47a2.51,2.51,0,0,0,.18-.27,1.52,1.52,0,0,0,.24-.83,1.47,1.47,0,0,0-.16-.68l-.11-.19a1.58,1.58,0,0,0-1.27-.66,2,2,0,0,0-.94.24,38.32,38.32,0,0,0-3.35,1.9l1.57-1.35c1.5-1.28,2.83-2.43,3.8-3.3.49-.44.88-.81,1.18-1.11.15-.15.28-.28.4-.42a2.71,2.71,0,0,0,.2-.27,1.61,1.61,0,0,0,.25-.86,1.9,1.9,0,0,0-.07-.49l-.14-.29a1.6,1.6,0,0,0-1.32-.75,2.16,2.16,0,0,0-.71.15c-.87.36-2.68,1.42-5.31,3l-.93.54.31-.22c2.22-1.65,4.18-3.14,5.62-4.28.71-.57,1.29-1.06,1.73-1.45.22-.21.4-.38.57-.57s.16-.2.26-.35a1.64,1.64,0,0,0,.26-.89,1.58,1.58,0,0,0-.2-.77,1.6,1.6,0,0,0-1.35-.77,1.82,1.82,0,0,0-.73.15,67.27,67.27,0,0,0-6.2,3.42c-2,1.16-4.26,2.53-6.64,4l.64-.47c3-2.27,5.85-4.4,7.94-6,1-.82,1.9-1.52,2.52-2.06.31-.28.57-.51.78-.74a4.26,4.26,0,0,0,.32-.38,1.59,1.59,0,0,0,.12-1.76l-.07-.11a1.57,1.57,0,0,0-1.27-.66,2.55,2.55,0,0,0-1.13.32c-2,1-8.37,4.84-14.49,8.56l-.31.18c.67-.57,1.32-1.14,1.94-1.68,1.44-1.26,2.72-2.39,3.66-3.25q.7-.65,1.14-1.08a5.06,5.06,0,0,0,.39-.43,1.91,1.91,0,0,0,.19-.28,1.51,1.51,0,0,0,.24-.83,1.4,1.4,0,0,0-.25-.85,1.59,1.59,0,0,0-.7-.57,1.56,1.56,0,0,0-.58-.11,1.86,1.86,0,0,0-.71.15c-.89.36-2.66,1.42-5.25,2.95-2.94,1.76-6.71,4.06-10.29,6.23,1.12-1,2.24-1.94,3.27-2.85,1.55-1.36,2.92-2.58,3.93-3.52.5-.48.91-.88,1.23-1.22a4.75,4.75,0,0,0,.42-.49,1.77,1.77,0,0,0,.4-1.1,1.53,1.53,0,0,0-.89-1.4,1.64,1.64,0,0,0-.65-.14,2.19,2.19,0,0,0-1,.26c-1.51.7-5.79,3.33-10,5.86l-1.4.85.12-.14c1.12-1.33,2.21-2.63,3-3.63.41-.5.75-.92,1-1.26.12-.17.23-.32.32-.46a1.83,1.83,0,0,0,.15-.25,1.43,1.43,0,0,0,.19-.76,1.25,1.25,0,0,0-.16-.67,1.51,1.51,0,0,0-.78-.73,1.7,1.7,0,0,0-.59-.12,2.18,2.18,0,0,0-.85.21l-.46.24.48-.44c1.16-1.05,2.19-2,3-2.73.38-.36.69-.67.93-.94a3.19,3.19,0,0,0,.33-.4,1.57,1.57,0,0,0,.38-1,1.52,1.52,0,0,0-.17-.69l-.15-.25a1.68,1.68,0,0,0-1.21-.59,1.87,1.87,0,0,0-.82.2c-.73.34-2.23,1.24-3.93,2.27.6-.77,1.16-1.51,1.62-2.12q.45-.62.75-1c.1-.15.18-.28.26-.42a1.65,1.65,0,0,0,.26-.9,1.31,1.31,0,0,0-.25-.84l-.1-.13a1.64,1.64,0,0,0-1.17-.55,1.57,1.57,0,0,0-.62.13A29.3,29.3,0,0,0,76,173.5l-3.71,2.22c.81-1,1.58-1.95,2.18-2.72.35-.44.64-.82.86-1.13.11-.15.2-.29.29-.43s.08-.15.13-.26a1.38,1.38,0,0,0,.16-.69,1.4,1.4,0,0,0-.08-.48,1.49,1.49,0,0,0-.36-.59,1.65,1.65,0,0,0-.37-.27,1.45,1.45,0,0,0-.7-.17,1.5,1.5,0,0,0-.7.15c.61-1,1.21-2,1.66-2.71.23-.38.42-.71.57-1l.19-.36a1.6,1.6,0,0,0,0-1.47l-.06-.1a1.33,1.33,0,0,0-.56-.54,1.47,1.47,0,0,0-.56-.18H74.8a1.4,1.4,0,0,0-.58.11,8.72,8.72,0,0,0-1,.57c0-.15.11-.3.17-.44l.87-2.26c.12-.31.21-.58.29-.81a2.53,2.53,0,0,0,.18-.85,1.56,1.56,0,0,0-.08-.49l-.22-.42a1.75,1.75,0,0,0-.37-.36,1.59,1.59,0,0,0-.84-.25,1.46,1.46,0,0,0-.69.16c-.41.2-1,.58-1.69,1l-.63.38c-.69-.29-1.76-.7-2.73-1.07L66,157.48l-.42-.18h0a1.5,1.5,0,0,0-.43-.18c.07-.14.13-.29.19-.44.35-.79.68-1.57.94-2.18l.31-.78c0-.11.08-.21.11-.32a1.77,1.77,0,0,0,.1-.57s.1,0-.16-.68l-.26-.36.66-1.55c.33-.77.66-1.53.9-2.13.13-.31.23-.57.31-.78l.11-.32a2.1,2.1,0,0,0,.09-.56,1.67,1.67,0,0,0-.08-.49l-.14-.29a1.43,1.43,0,0,0-.67-.6,1,1,0,0,0-.2-.07l.33-.61c.48-.9.95-1.78,1.3-2.45.18-.35.33-.64.44-.87s.1-.22.15-.33a1.74,1.74,0,0,0,.15-.7h0a1.49,1.49,0,0,0-.33-.94,1.51,1.51,0,0,0-.47-.39,1.56,1.56,0,0,0-.72-.18,1.46,1.46,0,0,0-.6.12,18.33,18.33,0,0,0-1.71.94l-1.07.63L65,140c.76-1.13,1.5-2.22,2.06-3.07.28-.43.52-.79.69-1.08.09-.14.16-.27.23-.4a1.5,1.5,0,0,0,.11-.22,1.52,1.52,0,0,0,.13-.63A1.4,1.4,0,0,0,68,134a1.6,1.6,0,0,0-.71-.7,1.51,1.51,0,0,0-.66-.14,1.54,1.54,0,0,0-.71.16c-.73.32-2,1.13-3.33,2l-.39.24c0-.88,0-1.78,0-2.34v-.41c0-.07,0-.12,0-.19a.45.45,0,0,0,0-.14,1.11,1.11,0,0,0-.17-.51l-.06-.11a1.48,1.48,0,0,0-.62-.53,1.51,1.51,0,0,0-.65-.15,1.62,1.62,0,0,0-.81.21c-.3.14-.76.4-1.32.73,1.18-1.29,2.32-2.53,3.19-3.52.47-.54.86-1,1.16-1.37l.39-.51c0-.09.11-.18.17-.3a1.64,1.64,0,0,0,.19-.76,1.48,1.48,0,0,0-.16-.68,1.55,1.55,0,0,0-.8-.73,1.42,1.42,0,0,0-.57-.11,1.75,1.75,0,0,0-.81.2c-.48.22-1.29.68-2.25,1.25l.56-.62c.78-.87,1.47-1.66,2-2.28.26-.3.47-.57.64-.8a3.07,3.07,0,0,0,.24-.35,1.6,1.6,0,0,0,.26-.9s.12-.17-.25-.84a1.59,1.59,0,0,0-1.28-.69,2.24,2.24,0,0,0-.92.23c-1.28.59-4.56,2.58-7.88,4.6l1-1.1c.77-.88,1.46-1.67,2-2.28l.63-.8c.09-.12.16-.22.24-.35a1.57,1.57,0,0,0,.27-.89,1.71,1.71,0,0,0-.08-.49l-.14-.3a1.61,1.61,0,0,0-1.33-.75,2.29,2.29,0,0,0-.87.21c-1,.46-3.12,1.77-5.42,3.2.64-.73,1.23-1.42,1.71-2,.36-.42.65-.78.88-1.07l.29-.4a1.7,1.7,0,0,0,.14-.24,1.37,1.37,0,0,0,.19-.75,1.28,1.28,0,0,0-.16-.68l-.1-.18a1.58,1.58,0,0,0-1.28-.66,2.16,2.16,0,0,0-.87.2c-.89.4-2.65,1.45-4.65,2.67.71-.77,1.37-1.48,1.91-2.09.42-.46.76-.86,1-1.18.13-.16.24-.3.34-.44a2.22,2.22,0,0,0,.16-.25,1.49,1.49,0,0,0,.21-.79,1.28,1.28,0,0,0-.16-.68l-.17-.27a1.52,1.52,0,0,0-1.18-.56,1.59,1.59,0,0,0-.62.12c-.48.21-1.08.58-2.09,1.16-1.46.86-3.45,2.07-5.12,3.05-.82.5-1.57.94-2.11,1.25l-.64.35-.06,0a1,1,0,0,0-.22.09,1.5,1.5,0,0,0-.67,2h0a1.56,1.56,0,0,0,1,.8,2,2,0,0,0,.31,0h0a1.48,1.48,0,0,0,.61-.12c.48-.21,1.08-.57,2.08-1.15-.75.82-1.46,1.59-2,2.23-.42.46-.77.86-1,1.17-.13.16-.24.3-.34.44a2.22,2.22,0,0,0-.16.25,1.52,1.52,0,0,0-.22.8,1.45,1.45,0,0,0,.08.47,1.59,1.59,0,0,0,.36.6h0a1.53,1.53,0,0,0,.59.37,1.61,1.61,0,0,0,.49.07,1.83,1.83,0,0,0,.87-.22c1-.46,3.26-1.89,5.75-3.41-.64.73-1.23,1.43-1.72,2s-.65.8-.87,1.1c-.12.15-.21.28-.31.42s-.09.15-.14.26a1.46,1.46,0,0,0-.17.72,1.66,1.66,0,0,0,.44,1.08h0a1.48,1.48,0,0,0,1.1.46,2.15,2.15,0,0,0,.86-.2,56.76,56.76,0,0,0,5.1-3l-.89,1c-.78.89-1.46,1.68-2,2.31-.25.31-.46.57-.63.8s-.16.23-.24.36a1.64,1.64,0,0,0-.26.89,1.68,1.68,0,0,0,.06.43,1.18,1.18,0,0,0,.12.28,1,1,0,0,0,.14.22l0,.05a1.54,1.54,0,0,0,.73.48,1.35,1.35,0,0,0,.44.06,1.42,1.42,0,0,0,.64-.13,31.19,31.19,0,0,0,3.1-1.74l5.11-3.09c-.92,1-1.79,2-2.47,2.76-.4.46-.74.85-1,1.17-.13.16-.23.29-.33.44a2.22,2.22,0,0,0-.16.25,1.59,1.59,0,0,0-.2.77,1.69,1.69,0,0,0,.15.65,1.22,1.22,0,0,0,.19.3h0a1.36,1.36,0,0,0,1.17.58,1.81,1.81,0,0,0,.82-.2c.47-.23,1.28-.7,2.26-1.28-1.26,1.36-2.48,2.68-3.4,3.71-.47.53-.86,1-1.15,1.32a5.73,5.73,0,0,0-.37.48,2,2,0,0,0-.17.26,1.44,1.44,0,0,0-.22.81,1,1,0,0,0,.06.43,1.64,1.64,0,0,0,.5.76h0a1.4,1.4,0,0,0,.94.34,1.66,1.66,0,0,0,.81-.2c.89-.42,3-1.74,5.19-3.05l2.05-1.24c0,.91,0,1.85,0,2.43,0,.15,0,.28,0,.4a1.48,1.48,0,0,0,0,.2c0,.05,0,.1,0,.19a1.44,1.44,0,0,0,.26.59,1.3,1.3,0,0,0,1.1.6.24.24,0,0,1,.13,0,1.61,1.61,0,0,0,.73-.17l.47-.25-.06.08c-.76,1.13-1.5,2.23-2.06,3.09-.29.43-.52.79-.7,1.09s-.16.28-.23.42a1.64,1.64,0,0,0-.23.84.76.76,0,0,0,0,.33,1.73,1.73,0,0,0,.17.44.88.88,0,0,0,.24.31,1.39,1.39,0,0,0,.93.43h.13a1.47,1.47,0,0,0,.62-.13c.42-.19.87-.46,1.68-.93l2.07-1.24c-.44.83-.87,1.63-1.19,2.26-.18.35-.33.64-.44.88a3.11,3.11,0,0,0-.15.33,1.55,1.55,0,0,0-.15.7,1.62,1.62,0,0,0,.44,1.07,1.51,1.51,0,0,0,1,.44s0,.07,0,.11c-.33.77-.66,1.54-.9,2.14-.13.3-.23.57-.31.79a2.31,2.31,0,0,0-.2.88,1.18,1.18,0,0,0,0,.3,1.78,1.78,0,0,0,.32.68l0,.05-.69,1.6c-.34.79-.68,1.57-.93,2.18-.13.31-.23.57-.31.78s-.08.21-.11.31a1.53,1.53,0,0,0-.1.58,1.14,1.14,0,0,0,0,.4,1.61,1.61,0,0,0,.39.67,1.52,1.52,0,0,0,1.06.44,1.15,1.15,0,0,0,.58-.12,4.4,4.4,0,0,0,.65-.35l1.21-.73.06,0,.39.16,2.8,1.09,1.13.45.28.12a1.46,1.46,0,0,0,.79.23h0l.17,0c-.09.22-.18.44-.26.66-.33.83-.64,1.63-.87,2.25-.12.32-.22.59-.29.81a2.43,2.43,0,0,0-.18.86,1,1,0,0,0,0,.36,1.58,1.58,0,0,0,.14.36h0v0a.41.41,0,0,0,0,.09.74.74,0,0,0,.12.16l0,0a1.47,1.47,0,0,0,1,.5h.16l.31,0s0,0,0,0c-.62,1-1.23,2-1.69,2.77-.23.38-.42.72-.57,1a3.48,3.48,0,0,0-.2.38,1.93,1.93,0,0,0-.19.78h0a1.38,1.38,0,0,0,.17.68h0l0,0a.93.93,0,0,0,.35.43h0a1.22,1.22,0,0,0,.64.33l-.32.39c-.94,1.16-1.85,2.28-2.54,3.17-.35.44-.64.82-.86,1.13-.11.15-.2.29-.29.43l-.14.26a1.6,1.6,0,0,0,.13,1.58h0a1.39,1.39,0,0,0,1.21.64,1.62,1.62,0,0,0,.64-.13c.54-.23,1.33-.71,2.59-1.44s2.71-1.62,4.19-2.51c-.66.85-1.28,1.66-1.77,2.32-.31.41-.56.75-.75,1a4.53,4.53,0,0,0-.26.4,1.78,1.78,0,0,0-.12.24,1.48,1.48,0,0,0-.15.67,1.32,1.32,0,0,0,.17.68h0l.09.16c.07.12.14.22.2.23a1.4,1.4,0,0,0,.63.38,2,2,0,0,0,.44.07l.18,0-1.1,1c-1.16,1.05-2.19,2-2.95,2.74-.38.36-.69.68-.93.95a3.47,3.47,0,0,0-.34.42,1.58,1.58,0,0,0-.36,1,1.64,1.64,0,0,0,.3.91,1.55,1.55,0,0,0,.69.52,1.5,1.5,0,0,0,.54.1,1.85,1.85,0,0,0,.85-.22c.88-.4,2.8-1.58,4.93-2.89l0,.05c-1.12,1.33-2.21,2.62-3,3.62-.41.5-.75.92-1,1.26-.13.16-.23.31-.33.45s-.09.14-.15.24a1.54,1.54,0,0,0-.11,1.28c0,.1.09.19.13.27h0a1.73,1.73,0,0,0,.15.2l.08.09h0a1.59,1.59,0,0,0,.62.38,1.85,1.85,0,0,0,.46.07,1.68,1.68,0,0,0,.65-.13,37,37,0,0,0,3.71-2.06c.9-.54,1.91-1.14,3-1.79l-2.93,2.55c-1.55,1.34-2.92,2.56-3.92,3.48-.5.47-.91.86-1.22,1.18s-.29.31-.42.47l-.2.3a1.61,1.61,0,0,0-.22.82,1.3,1.3,0,0,0,0,.35,1.46,1.46,0,0,0,.26.56h0a1.46,1.46,0,0,0,1.25.62A2.72,2.72,0,0,0,72,203c2.09-.95,8.15-4.63,14.1-8.24L84.67,196c-1.44,1.26-2.72,2.39-3.66,3.26-.47.43-.85.79-1.15,1.09-.14.16-.26.29-.38.44l-.2.28a1.66,1.66,0,0,0-.23.83,1.72,1.72,0,0,0,.28.89,1.62,1.62,0,0,0,.72.54,1.37,1.37,0,0,0,.55.1,2.54,2.54,0,0,0,1.12-.32c1.28-.59,4.12-2.26,7.54-4.31l-.13.09c-3,2.27-5.85,4.4-7.93,6-1,.83-1.91,1.52-2.53,2.07-.31.28-.57.51-.78.74a3.34,3.34,0,0,0-.32.39,1.6,1.6,0,0,0-.32,1,1.62,1.62,0,0,0,.32,1h0a1.42,1.42,0,0,0,1.21.6,1.64,1.64,0,0,0,.73-.16A69.8,69.8,0,0,0,85.65,207c1.68-1,3.6-2.14,5.61-3.35l-1.36,1c-2.21,1.64-4.18,3.11-5.61,4.24-.72.57-1.3,1-1.73,1.43a7.33,7.33,0,0,0-.56.54,3.83,3.83,0,0,0-.26.33,1.62,1.62,0,0,0-.28.92,1.6,1.6,0,0,0,.38,1h0a1.43,1.43,0,0,0,1.14.53,1.8,1.8,0,0,0,.71-.15c.88-.36,2.69-1.41,5.31-2.95s5.8-3.46,9-5.37c-1.63,1.39-3.15,2.71-4.36,3.79-.78.69-1.42,1.29-1.9,1.76-.23.24-.43.44-.6.65a2.12,2.12,0,0,0-.26.35,1.59,1.59,0,0,0,0,1.76,1.48,1.48,0,0,0,.77.59,1.42,1.42,0,0,0,.53.09,2.08,2.08,0,0,0,.93-.23c1.25-.56,4.06-2.28,7.1-4.15-1,1-1.87,1.89-2.59,2.65-.5.52-.91,1-1.22,1.31a5.07,5.07,0,0,0-.4.48,2.28,2.28,0,0,0-.18.26,1.52,1.52,0,0,0-.24.84,1.43,1.43,0,0,0,.16.67.17.17,0,0,1,0,.05,1.53,1.53,0,0,0,.9.73,2,2,0,0,0,.44.07,1.49,1.49,0,0,0,.67-.15c.69-.29,1.92-1,3.79-2.13,2.43-1.45,5.66-3.41,8.56-5.16l-.84,1c-.72.84-1.36,1.59-1.83,2.18-.24.3-.44.55-.6.77s-.15.22-.22.35a1.56,1.56,0,0,0,0,1.63,1.56,1.56,0,0,0,.8.67,1.38,1.38,0,0,0,.52.09,1.65,1.65,0,0,0,.76-.18c.81-.37,2.46-1.43,4.18-2.49.83-.51,1.64-1,2.25-1.37.26.36.55.78.82,1.17l.73,1.05.24.34,0,0a1.54,1.54,0,0,0,1,.72,1.6,1.6,0,0,0,.28,0h0a1.62,1.62,0,0,0,.74-.17c.67-.32,2-1.17,3.45-2l1-.61.12.63c.11.56.21,1.1.3,1.51,0,.21.07.39.1.52a1.62,1.62,0,0,1,0,.19.81.81,0,0,1,0,.11,1.37,1.37,0,0,0,.15.35,1.5,1.5,0,0,0,1.3.75c.68-.06.54-.13.66-.15.3-.15.5-.29.81-.47l.37-.22h0a1.16,1.16,0,0,0,.27-.14,1.5,1.5,0,0,0,.42-2.08Z"/><path d="M228.35,207.18a14.87,14.87,0,0,0-2.79-.89c-12.18-1.8-19.32-2.43-23.67-3.86-1-.32-1.87-.62-2.56-.88a39.47,39.47,0,0,0,7.74-15.42c5.5-23.5-8.4-42-21.12-47.38a41.34,41.34,0,0,0-24.78-3.87,46,46,0,0,0-39.85,8.3c-10.54,9.86-15.19,25-13.13,40-5.13-.84-15.58-2.15-24.49-11-5.86-5.82-9.59-14.76-11.33-24-2-9.23-1.55-18.94-4.06-27.62a22.59,22.59,0,0,0-9.17-12.15,22.06,22.06,0,0,0-18.22-1.76c-7,1.94-11.18,11.08-8.23,18.48,3.07,7.68,10.34,11.39,16,15.66a27.88,27.88,0,0,1,12.12,16.51c1.84,6.7,2.33,14.74,3.34,22.15s1.13,15.42,4.69,23.13c3.63,7.86,11.39,12.73,18.26,15.05,14.33,4.83,25.88,4,34.83,4.27,9,0,15.76-.22,20.93-.37,3.79-.1,6.73-.23,9.06-.39a56.75,56.75,0,0,0,11-.15c4.39.09,11.65-.4,19.27-.71,6.38-.3,13.41.24,21.83.35A95.14,95.14,0,0,0,217.9,220a32.27,32.27,0,0,0,8.28-2.12c1.66-1.13,2.89-.58,5.21-4.77a4.42,4.42,0,0,0-1-4.51A5.78,5.78,0,0,0,228.35,207.18ZM120.81,152c6.36-9.13,18.31-13.33,30-12.9a2.29,2.29,0,0,0,1,0c.21,0,.42,0,.63,0,12.11.84,24.95,7.12,29.69,18.56,4.23,11.48,5.09,26-5.52,33.21-4.57,3.7-10.51,4.89-16.62,4.43s-12.6-1.55-16.86-4.87c-9.45-6.33-11.46-20.42-5.12-28.4,6.34-7.72,18.58-10.89,24.54-6.7,6.43,4.1,7.91,13.5,5.39,18.84-5.76,12.32-21.38,1.42-19-4.07.46-3,3.47-5.4,5.68-6.33s4.09-.12,4.38,1c.56,2.76-3.11,4.94-4.6,5.87-1.72.35,1.91,2.1,6.9-3.44a4.78,4.78,0,0,0-1.44-6.22,7.85,7.85,0,0,0-7.43-.51c-4.48,1.59-10.19,7.5-7.49,14.63a16.58,16.58,0,0,0,17.67,9.72c8.17-1.46,13-10.85,11.76-19-.6-8.16-7.08-17-16.53-17.68a28.8,28.8,0,0,0-23.69,10.35c-5.71,7.26-6.5,17.95-2.13,26.48,4,8.94,14.25,14.31,23.9,15,9.5,1.83,21.92-.54,28.76-9.79,7.78-9.23,6.5-22.07,3.19-33-3.2-8.46-9.71-15-17.79-19.05,9.07,1.13,21,6,28,17.54,7.61,12.18,7.82,31.35-3.33,43.7-10.57,12.59-27.91,18.24-42.39,17-13.94-.66-34.82-11-38.7-32.63C111.88,173.44,114,161.37,120.81,152ZM89.06,212.88c-9.19-2.69-16.94-9.94-18.17-20.77-1.72-10.72-1.82-22.18-4.57-35.32-1.63-6.39-5.23-13.51-11.3-18.06-5.57-4.59-12.23-8-15.8-12.92-3.32-4.32-2.48-12.24,3.34-14,5.75-2.32,14.3-.89,18.26,5,4.5,5.76,4.27,13.92,5.19,21.53.85,7.4,2,14.63,4.27,20.73,4.29,12.45,13,20.55,20.52,23.48,8.73,3.22,14.57,3.53,17.76,3.07,2.46,13.36,12.56,25,25.38,31C121.13,216.43,104.67,217.63,89.06,212.88Zm122.22,2.18c-9.39.46-19.76.12-28.78.1A52.87,52.87,0,0,0,197,204.25a15.14,15.14,0,0,0,7,3.51c5.64,1.62,12.69,2,18.13,2.94a16.6,16.6,0,0,1,4,1.11,6.81,6.81,0,0,1-2.06,1.18C220.64,214.37,216,214.79,211.28,215.06Zm15.24-3s0,0,0,0Z"/><path d="M59.47,73.69c-4.56,23-2.41,28.4-.11,30.37,1.79,1.61,2.36-13.3,5.21-29.37,2.31-16.57,10.16-33.42,14.66-64.5a12.2,12.2,0,0,0-2.53-7A9.2,9.2,0,0,0,69.82,0c-4-.25-8.66,1.66-10.38,5.41a12,12,0,0,0,4.07,14.81c4.57,2.49,7.46,2.07,8.83,1.21-1.31,4.78-3,10.14-4.21,15.67C65,49.11,61.77,62.22,59.47,73.69Zm4.32-60.08c-1.26-2.73-.85-6.7,2.12-8s7.24-.72,7.87,2.3c.92,2.92.26,7-1,11.76C71.52,18.74,66.21,19.18,63.79,13.61Z"/><path d="M45.22,115a2.54,2.54,0,1,0,2.5,2.54A2.52,2.52,0,0,0,45.22,115Z"/><path d="M17,22a18.66,18.66,0,0,0-3.45-4.88,7,7,0,0,0-3.72-2A8.79,8.79,0,0,0,6,15.32C.74,17.68.36,22,0,24.58c-.39,5.18,2,11.79,8,11.76,4.61-.7,5.6-3.06,6.4-4.09a3,3,0,0,0,.49-1.36c1.46,4.9,2.87,10.84,5,16.9,3.42,10.63,7.62,21.93,10.21,31.73,4.82,19.53,5,23.58,8,25.36,2,1.53,1.92-12.73-3-26.77C30.62,63.69,26.27,47.74,17,22ZM14.4,30c-.94-1.37-5.92,4.63-8.43.52A10.42,10.42,0,0,1,5.57,22c1.16-2.87,4.25-2.85,5.67,0a31,31,0,0,1,3.51,8.28A1.11,1.11,0,0,0,14.4,30Z"/></g></g></svg>