<svg xmlns="http://www.w3.org/2000/svg" viewBox="0 0 171.55 167.13"><defs><style>.cls-1{fill:#f9b571;}.cls-2{fill:#dbcfc1;}.cls-3,.cls-6,.cls-7,.cls-8{fill:none;stroke-miterlimit:10;}.cls-3{stroke:#816b51;stroke-width:0.75px;}.cls-4{fill:#f49eb5;}.cls-5{fill:#8acfca;}.cls-6{stroke:#dfedcd;stroke-width:1.3px;}.cls-7{stroke:#f6a085;}.cls-7,.cls-8{stroke-width:0.95px;}.cls-8{stroke:#fff;}</style></defs><title>nimble</title><g id="Layer_2" data-name="Layer 2"><g id="Layer_1-2" data-name="Layer 1"><path class="cls-1" d="M33.86,39.69l-.63-.12c0-.21,3.69-21.46-8.08-36.59l.51-.39C37.61,18,33.9,39.47,33.86,39.69Z"/><path class="cls-1" d="M26,43.1C22.79,19.33,2.54,8.1,2.33,8l.31-.56C2.85,7.54,23.38,18.92,26.58,43Z"/><path class="cls-1" d="M27.12,2.14A2.14,2.14,0,1,1,25,0,2.14,2.14,0,0,1,27.12,2.14Z"/><path class="cls-1" d="M4.29,6.66A2.15,2.15,0,1,1,2.14,4.52,2.15,2.15,0,0,1,4.29,6.66Z"/><path class="cls-2" d="M157.79,158.09s4.93,1.29,4.93,3.64-32.13,7.71-68.34,4.28S37,158.09,35.05,138.38,37,107.54,31.4,95.75,16.62,76.69,15.77,59.34s13.71-23.57,22.7-21.85S64,46.27,60.11,76.69s-9,37.48.64,55.27,31.06,24.2,56.34,24.84S141.08,155.09,157.79,158.09Z"/><path class="cls-3" d="M40.62,53.13s-.22,8.56,3.21,9,4.71-7.5,4.71-7.5"/><path class="cls-3" d="M22.19,53.55s-1.71,7.28,1.72,7.71,3.85-7.07,3.85-7.07"/><line class="cls-3" x1="33.55" y1="59.34" x2="33.55" y2="67.05"/><path class="cls-4" d="M55.18,68.65c0,2-2,3.54-4.39,3.54s-4.39-1.58-4.39-3.54,2-3.53,4.39-3.53S55.18,66.7,55.18,68.65Z"/><path class="cls-4" d="M27.33,68.65c0,2-2,3.54-4.39,3.54s-4.39-1.58-4.39-3.54,2-3.53,4.39-3.53S27.33,66.7,27.33,68.65Z"/><circle class="cls-5" cx="112.01" cy="101.46" r="59.54" transform="translate(-38.94 108.92) rotate(-45)"/><circle class="cls-5" cx="112.01" cy="101.46" r="59.54" transform="translate(-38.94 108.92) rotate(-45)"/><path class="cls-6" d="M164.42,72.48a54.08,54.08,0,0,1-34.2,68.41,43.26,43.26,0,0,1-54.73-27.36A34.61,34.61,0,0,1,97.38,69.74a27.71,27.71,0,0,1,35,17.51,22.17,22.17,0,0,1-14,28A17.72,17.72,0,0,1,96,104.07a14.18,14.18,0,0,1,9-17.94,11.33,11.33,0,0,1,14.34,7.18,9.07,9.07,0,0,1-5.74,11.48,7.27,7.27,0,0,1-9.18-4.59"/><path class="cls-7" d="M28.75,69.29s.95,5.66,5.66,6.29,6.28-4.4,6.59-6.44"/><path class="cls-8" d="M133.23,63.13a1.59,1.59,0,1,1-1.59-1.58A1.59,1.59,0,0,1,133.23,63.13Z"/><circle class="cls-8" cx="123.72" cy="125.53" r="1.58"/><path class="cls-8" d="M89.84,110.33a1.59,1.59,0,1,1-1.59-1.59A1.59,1.59,0,0,1,89.84,110.33Z"/><circle class="cls-8" cx="102.19" cy="77.39" r="1.58"/><circle class="cls-8" cx="149.7" cy="105.89" r="1.58"/><path class="cls-8" d="M113,152.77a1.59,1.59,0,1,1-1.59-1.59A1.59,1.59,0,0,1,113,152.77Z"/><path class="cls-8" d="M64.5,101.46a1.59,1.59,0,1,1-1.59-1.58A1.59,1.59,0,0,1,64.5,101.46Z"/><path class="cls-8" d="M75.23,130.6a2.18,2.18,0,1,1-2.18-2.18A2.18,2.18,0,0,1,75.23,130.6Z"/><path class="cls-8" d="M146.35,77.23a1.88,1.88,0,1,1-1.88-1.88A1.88,1.88,0,0,1,146.35,77.23Z"/><path class="cls-8" d="M78.43,69.79a1.88,1.88,0,1,1-1.88-1.88A1.88,1.88,0,0,1,78.43,69.79Z"/></g></g></svg>